<?xml version="1.0" encoding="UTF-8" standalone="no"?><svg xmlns="http://www.w3.org/2000/svg" xmlns:xlink="http://www.w3.org/1999/xlink" contentStyleType="text/css" height="650px" preserveAspectRatio="none" style="width:863px;height:650px;background:#FFFFFF;" version="1.1" viewBox="0 0 863 650" width="863px" zoomAndPan="magnify"><defs/><g><rect fill="none" height="27.6094" id="_title" style="stroke:none;stroke-width:1.0;" width="457" x="196" y="5"/><text fill="#000000" font-family="sans-serif" font-size="14" font-weight="bold" lengthAdjust="spacing" textLength="447" x="201" y="24.5332">Domain model class diagram  "Online Store Information System"</text><!--MD5=[cf4d6237fcae255cd2e1656cf84a30e2]
class Order--><g id="elem_Order"><rect codeLine="6" fill="#F1F1F1" height="100.8281" id="Order" rx="2.5" ry="2.5" style="stroke:#181818;stroke-width:0.5;" width="103" x="319.5" y="45.6094"/><ellipse cx="349.8" cy="61.6094" fill="#ADD1B2" rx="11" ry="11" style="stroke:#181818;stroke-width:1.0;"/><path d="M352.5656,57.4844 Q352.7219,57.2656 352.9094,57.1563 Q353.0969,57.0469 353.3156,57.0469 Q353.6906,57.0469 353.925,57.3125 Q354.1594,57.5625 354.1594,58.1719 L354.1594,59.625 Q354.1594,60.2344 353.925,60.5 Q353.6906,60.7656 353.3156,60.7656 Q352.9719,60.7656 352.7688,60.5625 Q352.5656,60.375 352.4563,59.8594 Q352.4094,59.5 352.2219,59.3125 Q351.8938,58.9375 351.2844,58.7188 Q350.675,58.5 350.05,58.5 Q349.2844,58.5 348.6438,58.8281 Q348.0188,59.1563 347.5188,59.9063 Q347.0344,60.6563 347.0344,61.6875 L347.0344,62.7813 Q347.0344,64.0156 347.925,64.8438 Q348.8156,65.6563 350.4094,65.6563 Q351.3469,65.6563 352.0031,65.4063 Q352.3938,65.25 352.8156,64.8125 Q353.0813,64.5469 353.2219,64.4688 Q353.3781,64.3906 353.5813,64.3906 Q353.9094,64.3906 354.1594,64.6563 Q354.425,64.9063 354.425,65.25 Q354.425,65.5938 354.0813,66 Q353.5813,66.5781 352.7844,66.9063 Q351.7063,67.3594 350.4094,67.3594 Q348.8938,67.3594 347.6906,66.7344 Q346.7063,66.2344 346.0188,65.1719 Q345.3313,64.0938 345.3313,62.8125 L345.3313,61.6563 Q345.3313,60.3281 345.9406,59.1875 Q346.5656,58.0313 347.6594,57.4219 Q348.7531,56.7969 349.9875,56.7969 Q350.7219,56.7969 351.3625,56.9688 Q352.0188,57.125 352.5656,57.4844 Z " fill="#000000"/><text fill="#000000" font-family="sans-serif" font-size="14" lengthAdjust="spacing" textLength="37" x="367.2" y="67.3379">Order</text><line style="stroke:#181818;stroke-width:0.5;" x1="320.5" x2="421.5" y1="77.6094" y2="77.6094"/><rect fill="none" height="6" style="stroke:#C82930;stroke-width:1.0;" width="6" x="327.5" y="88.9141"/><text fill="#000000" font-family="sans-serif" font-size="14" lengthAdjust="spacing" textLength="50" x="339.5" y="96.1426">OrderID</text><rect fill="none" height="6" style="stroke:#C82930;stroke-width:1.0;" width="6" x="327.5" y="106.5234"/><text fill="#000000" font-family="sans-serif" font-size="14" lengthAdjust="spacing" textLength="67" x="339.5" y="113.752">OrderDate</text><rect fill="none" height="6" style="stroke:#C82930;stroke-width:1.0;" width="6" x="327.5" y="124.1328"/><text fill="#000000" font-family="sans-serif" font-size="14" lengthAdjust="spacing" textLength="77" x="339.5" y="131.3613">OrderStatus</text><line style="stroke:#181818;stroke-width:0.5;" x1="320.5" x2="421.5" y1="138.4375" y2="138.4375"/></g><!--MD5=[ed6624c6556d5e7b1bd23032162d20b7]
class Client--><g id="elem_Client"><rect codeLine="12" fill="#F1F1F1" height="153.6563" id="Client" rx="2.5" ry="2.5" style="stroke:#181818;stroke-width:0.5;" width="100" x="7" y="232.6094"/><ellipse cx="36.4" cy="248.6094" fill="#ADD1B2" rx="11" ry="11" style="stroke:#181818;stroke-width:1.0;"/><path d="M39.1656,244.4844 Q39.3219,244.2656 39.5094,244.1563 Q39.6969,244.0469 39.9156,244.0469 Q40.2906,244.0469 40.525,244.3125 Q40.7594,244.5625 40.7594,245.1719 L40.7594,246.625 Q40.7594,247.2344 40.525,247.5 Q40.2906,247.7656 39.9156,247.7656 Q39.5719,247.7656 39.3688,247.5625 Q39.1656,247.375 39.0563,246.8594 Q39.0094,246.5 38.8219,246.3125 Q38.4938,245.9375 37.8844,245.7188 Q37.275,245.5 36.65,245.5 Q35.8844,245.5 35.2438,245.8281 Q34.6188,246.1563 34.1188,246.9063 Q33.6344,247.6563 33.6344,248.6875 L33.6344,249.7813 Q33.6344,251.0156 34.525,251.8438 Q35.4156,252.6563 37.0094,252.6563 Q37.9469,252.6563 38.6031,252.4063 Q38.9938,252.25 39.4156,251.8125 Q39.6813,251.5469 39.8219,251.4688 Q39.9781,251.3906 40.1813,251.3906 Q40.5094,251.3906 40.7594,251.6563 Q41.025,251.9063 41.025,252.25 Q41.025,252.5938 40.6813,253 Q40.1813,253.5781 39.3844,253.9063 Q38.3063,254.3594 37.0094,254.3594 Q35.4938,254.3594 34.2906,253.7344 Q33.3063,253.2344 32.6188,252.1719 Q31.9313,251.0938 31.9313,249.8125 L31.9313,248.6563 Q31.9313,247.3281 32.5406,246.1875 Q33.1656,245.0313 34.2594,244.4219 Q35.3531,243.7969 36.5875,243.7969 Q37.3219,243.7969 37.9625,243.9688 Q38.6188,244.125 39.1656,244.4844 Z " fill="#000000"/><text fill="#000000" font-family="sans-serif" font-size="14" lengthAdjust="spacing" textLength="36" x="53.6" y="254.3379">Client</text><line style="stroke:#181818;stroke-width:0.5;" x1="8" x2="106" y1="264.6094" y2="264.6094"/><rect fill="none" height="6" style="stroke:#C82930;stroke-width:1.0;" width="6" x="15" y="275.9141"/><text fill="#000000" font-family="sans-serif" font-size="14" lengthAdjust="spacing" textLength="49" x="27" y="283.1426">ClientID</text><rect fill="none" height="6" style="stroke:#C82930;stroke-width:1.0;" width="6" x="15" y="293.5234"/><text fill="#000000" font-family="sans-serif" font-size="14" lengthAdjust="spacing" textLength="36" x="27" y="300.752">Name</text><rect fill="none" height="6" style="stroke:#C82930;stroke-width:1.0;" width="6" x="15" y="311.1328"/><text fill="#000000" font-family="sans-serif" font-size="14" lengthAdjust="spacing" textLength="57" x="27" y="318.3613">Surname</text><rect fill="none" height="6" style="stroke:#C82930;stroke-width:1.0;" width="6" x="15" y="328.7422"/><text fill="#000000" font-family="sans-serif" font-size="14" lengthAdjust="spacing" textLength="74" x="27" y="335.9707">DateOfBirth</text><rect fill="none" height="6" style="stroke:#C82930;stroke-width:1.0;" width="6" x="15" y="346.3516"/><text fill="#000000" font-family="sans-serif" font-size="14" lengthAdjust="spacing" textLength="34" x="27" y="353.5801">Email</text><rect fill="none" height="6" style="stroke:#C82930;stroke-width:1.0;" width="6" x="15" y="363.9609"/><text fill="#000000" font-family="sans-serif" font-size="14" lengthAdjust="spacing" textLength="61" x="27" y="371.1895">Password</text><line style="stroke:#181818;stroke-width:0.5;" x1="8" x2="106" y1="378.2656" y2="378.2656"/></g><!--MD5=[283daf7a19cf2d424e19258613cc4d5f]
class ClientAddress--><g id="elem_ClientAddress"><rect codeLine="21" fill="#F1F1F1" height="171.2656" id="ClientAddress" rx="2.5" ry="2.5" style="stroke:#181818;stroke-width:0.5;" width="120" x="48" y="472.6094"/><ellipse cx="63" cy="488.6094" fill="#ADD1B2" rx="11" ry="11" style="stroke:#181818;stroke-width:1.0;"/><path d="M65.7656,484.4844 Q65.9219,484.2656 66.1094,484.1563 Q66.2969,484.0469 66.5156,484.0469 Q66.8906,484.0469 67.125,484.3125 Q67.3594,484.5625 67.3594,485.1719 L67.3594,486.625 Q67.3594,487.2344 67.125,487.5 Q66.8906,487.7656 66.5156,487.7656 Q66.1719,487.7656 65.9688,487.5625 Q65.7656,487.375 65.6563,486.8594 Q65.6094,486.5 65.4219,486.3125 Q65.0938,485.9375 64.4844,485.7188 Q63.875,485.5 63.25,485.5 Q62.4844,485.5 61.8438,485.8281 Q61.2188,486.1563 60.7188,486.9063 Q60.2344,487.6563 60.2344,488.6875 L60.2344,489.7813 Q60.2344,491.0156 61.125,491.8438 Q62.0156,492.6563 63.6094,492.6563 Q64.5469,492.6563 65.2031,492.4063 Q65.5938,492.25 66.0156,491.8125 Q66.2813,491.5469 66.4219,491.4688 Q66.5781,491.3906 66.7813,491.3906 Q67.1094,491.3906 67.3594,491.6563 Q67.625,491.9063 67.625,492.25 Q67.625,492.5938 67.2813,493 Q66.7813,493.5781 65.9844,493.9063 Q64.9063,494.3594 63.6094,494.3594 Q62.0938,494.3594 60.8906,493.7344 Q59.9063,493.2344 59.2188,492.1719 Q58.5313,491.0938 58.5313,489.8125 L58.5313,488.6563 Q58.5313,487.3281 59.1406,486.1875 Q59.7656,485.0313 60.8594,484.4219 Q61.9531,483.7969 63.1875,483.7969 Q63.9219,483.7969 64.5625,483.9688 Q65.2188,484.125 65.7656,484.4844 Z " fill="#000000"/><text fill="#000000" font-family="sans-serif" font-size="14" lengthAdjust="spacing" textLength="88" x="77" y="494.3379">ClientAddress</text><line style="stroke:#181818;stroke-width:0.5;" x1="49" x2="167" y1="504.6094" y2="504.6094"/><rect fill="none" height="6" style="stroke:#C82930;stroke-width:1.0;" width="6" x="56" y="515.9141"/><text fill="#000000" font-family="sans-serif" font-size="14" lengthAdjust="spacing" textLength="65" x="68" y="523.1426">AddressID</text><rect fill="none" height="6" style="stroke:#C82930;stroke-width:1.0;" width="6" x="56" y="533.5234"/><text fill="#000000" font-family="sans-serif" font-size="14" lengthAdjust="spacing" textLength="50" x="68" y="540.752">Country</text><rect fill="none" height="6" style="stroke:#C82930;stroke-width:1.0;" width="6" x="56" y="551.1328"/><text fill="#000000" font-family="sans-serif" font-size="14" lengthAdjust="spacing" textLength="24" x="68" y="558.3613">City</text><rect fill="none" height="6" style="stroke:#C82930;stroke-width:1.0;" width="6" x="56" y="568.7422"/><text fill="#000000" font-family="sans-serif" font-size="14" lengthAdjust="spacing" textLength="73" x="68" y="575.9707">PostalCode</text><rect fill="none" height="6" style="stroke:#C82930;stroke-width:1.0;" width="6" x="56" y="586.3516"/><text fill="#000000" font-family="sans-serif" font-size="14" lengthAdjust="spacing" textLength="38" x="68" y="593.5801">Street</text><rect fill="none" height="6" style="stroke:#C82930;stroke-width:1.0;" width="6" x="56" y="603.9609"/><text fill="#000000" font-family="sans-serif" font-size="14" lengthAdjust="spacing" textLength="36" x="68" y="611.1895">Home</text><rect fill="none" height="6" style="stroke:#C82930;stroke-width:1.0;" width="6" x="56" y="621.5703"/><text fill="#000000" font-family="sans-serif" font-size="14" lengthAdjust="spacing" textLength="65" x="68" y="628.7988">Apartment</text><line style="stroke:#181818;stroke-width:0.5;" x1="49" x2="167" y1="635.875" y2="635.875"/></g><!--MD5=[f6c77495e12a05eb94081b0ac09e8b1a]
class PaymentMethod--><g id="elem_PaymentMethod"><rect codeLine="31" fill="#F1F1F1" height="83.2188" id="PaymentMethod" rx="2.5" ry="2.5" style="stroke:#181818;stroke-width:0.5;" width="141" x="213.5" y="268.1094"/><ellipse cx="231.65" cy="284.1094" fill="#ADD1B2" rx="11" ry="11" style="stroke:#181818;stroke-width:1.0;"/><path d="M234.4156,279.9844 Q234.5719,279.7656 234.7594,279.6563 Q234.9469,279.5469 235.1656,279.5469 Q235.5406,279.5469 235.775,279.8125 Q236.0094,280.0625 236.0094,280.6719 L236.0094,282.125 Q236.0094,282.7344 235.775,283 Q235.5406,283.2656 235.1656,283.2656 Q234.8219,283.2656 234.6188,283.0625 Q234.4156,282.875 234.3063,282.3594 Q234.2594,282 234.0719,281.8125 Q233.7438,281.4375 233.1344,281.2188 Q232.525,281 231.9,281 Q231.1344,281 230.4938,281.3281 Q229.8688,281.6563 229.3688,282.4063 Q228.8844,283.1563 228.8844,284.1875 L228.8844,285.2813 Q228.8844,286.5156 229.775,287.3438 Q230.6656,288.1563 232.2594,288.1563 Q233.1969,288.1563 233.8531,287.9063 Q234.2438,287.75 234.6656,287.3125 Q234.9313,287.0469 235.0719,286.9688 Q235.2281,286.8906 235.4313,286.8906 Q235.7594,286.8906 236.0094,287.1563 Q236.275,287.4063 236.275,287.75 Q236.275,288.0938 235.9313,288.5 Q235.4313,289.0781 234.6344,289.4063 Q233.5563,289.8594 232.2594,289.8594 Q230.7438,289.8594 229.5406,289.2344 Q228.5563,288.7344 227.8688,287.6719 Q227.1813,286.5938 227.1813,285.3125 L227.1813,284.1563 Q227.1813,282.8281 227.7906,281.6875 Q228.4156,280.5313 229.5094,279.9219 Q230.6031,279.2969 231.8375,279.2969 Q232.5719,279.2969 233.2125,279.4688 Q233.8688,279.625 234.4156,279.9844 Z " fill="#000000"/><text fill="#000000" font-family="sans-serif" font-size="14" lengthAdjust="spacing" textLength="102" x="246.35" y="289.8379">PaymentMethod</text><line style="stroke:#181818;stroke-width:0.5;" x1="214.5" x2="353.5" y1="300.1094" y2="300.1094"/><rect fill="none" height="6" style="stroke:#C82930;stroke-width:1.0;" width="6" x="221.5" y="311.4141"/><text fill="#000000" font-family="sans-serif" font-size="14" lengthAdjust="spacing" textLength="115" x="233.5" y="318.6426">PaymentMethodID</text><rect fill="none" height="6" style="stroke:#C82930;stroke-width:1.0;" width="6" x="221.5" y="329.0234"/><text fill="#000000" font-family="sans-serif" font-size="14" lengthAdjust="spacing" textLength="79" x="233.5" y="336.252">MethodType</text><line style="stroke:#181818;stroke-width:0.5;" x1="214.5" x2="353.5" y1="343.3281" y2="343.3281"/></g><!--MD5=[6992e970d9102d4be5485e93c50e5315]
class DeliveryMethod--><g id="elem_DeliveryMethod"><rect codeLine="36" fill="#F1F1F1" height="83.2188" id="DeliveryMethod" rx="2.5" ry="2.5" style="stroke:#181818;stroke-width:0.5;" width="137" x="389.5" y="268.1094"/><ellipse cx="407.65" cy="284.1094" fill="#ADD1B2" rx="11" ry="11" style="stroke:#181818;stroke-width:1.0;"/><path d="M410.4156,279.9844 Q410.5719,279.7656 410.7594,279.6563 Q410.9469,279.5469 411.1656,279.5469 Q411.5406,279.5469 411.775,279.8125 Q412.0094,280.0625 412.0094,280.6719 L412.0094,282.125 Q412.0094,282.7344 411.775,283 Q411.5406,283.2656 411.1656,283.2656 Q410.8219,283.2656 410.6188,283.0625 Q410.4156,282.875 410.3063,282.3594 Q410.2594,282 410.0719,281.8125 Q409.7438,281.4375 409.1344,281.2188 Q408.525,281 407.9,281 Q407.1344,281 406.4938,281.3281 Q405.8688,281.6563 405.3688,282.4063 Q404.8844,283.1563 404.8844,284.1875 L404.8844,285.2813 Q404.8844,286.5156 405.775,287.3438 Q406.6656,288.1563 408.2594,288.1563 Q409.1969,288.1563 409.8531,287.9063 Q410.2438,287.75 410.6656,287.3125 Q410.9313,287.0469 411.0719,286.9688 Q411.2281,286.8906 411.4313,286.8906 Q411.7594,286.8906 412.0094,287.1563 Q412.275,287.4063 412.275,287.75 Q412.275,288.0938 411.9313,288.5 Q411.4313,289.0781 410.6344,289.4063 Q409.5563,289.8594 408.2594,289.8594 Q406.7438,289.8594 405.5406,289.2344 Q404.5563,288.7344 403.8688,287.6719 Q403.1813,286.5938 403.1813,285.3125 L403.1813,284.1563 Q403.1813,282.8281 403.7906,281.6875 Q404.4156,280.5313 405.5094,279.9219 Q406.6031,279.2969 407.8375,279.2969 Q408.5719,279.2969 409.2125,279.4688 Q409.8688,279.625 410.4156,279.9844 Z " fill="#000000"/><text fill="#000000" font-family="sans-serif" font-size="14" lengthAdjust="spacing" textLength="98" x="422.35" y="289.8379">DeliveryMethod</text><line style="stroke:#181818;stroke-width:0.5;" x1="390.5" x2="525.5" y1="300.1094" y2="300.1094"/><rect fill="none" height="6" style="stroke:#C82930;stroke-width:1.0;" width="6" x="397.5" y="311.4141"/><text fill="#000000" font-family="sans-serif" font-size="14" lengthAdjust="spacing" textLength="111" x="409.5" y="318.6426">DeliveryMethodID</text><rect fill="none" height="6" style="stroke:#C82930;stroke-width:1.0;" width="6" x="397.5" y="329.0234"/><text fill="#000000" font-family="sans-serif" font-size="14" lengthAdjust="spacing" textLength="79" x="409.5" y="336.252">MethodType</text><line style="stroke:#181818;stroke-width:0.5;" x1="390.5" x2="525.5" y1="343.3281" y2="343.3281"/></g><!--MD5=[d2c01ec770881ebd6af0e19ca2e9bc34]
class Goods--><g id="elem_Goods"><rect codeLine="41" fill="#F1F1F1" height="206.4844" id="Goods" rx="2.5" ry="2.5" style="stroke:#181818;stroke-width:0.5;" width="125" x="561.5" y="206.6094"/><ellipse cx="599.45" cy="222.6094" fill="#ADD1B2" rx="11" ry="11" style="stroke:#181818;stroke-width:1.0;"/><path d="M602.2156,218.4844 Q602.3719,218.2656 602.5594,218.1563 Q602.7469,218.0469 602.9656,218.0469 Q603.3406,218.0469 603.575,218.3125 Q603.8094,218.5625 603.8094,219.1719 L603.8094,220.625 Q603.8094,221.2344 603.575,221.5 Q603.3406,221.7656 602.9656,221.7656 Q602.6219,221.7656 602.4188,221.5625 Q602.2156,221.375 602.1063,220.8594 Q602.0594,220.5 601.8719,220.3125 Q601.5438,219.9375 600.9344,219.7188 Q600.325,219.5 599.7,219.5 Q598.9344,219.5 598.2938,219.8281 Q597.6688,220.1563 597.1688,220.9063 Q596.6844,221.6563 596.6844,222.6875 L596.6844,223.7813 Q596.6844,225.0156 597.575,225.8438 Q598.4656,226.6563 600.0594,226.6563 Q600.9969,226.6563 601.6531,226.4063 Q602.0438,226.25 602.4656,225.8125 Q602.7313,225.5469 602.8719,225.4688 Q603.0281,225.3906 603.2313,225.3906 Q603.5594,225.3906 603.8094,225.6563 Q604.075,225.9063 604.075,226.25 Q604.075,226.5938 603.7313,227 Q603.2313,227.5781 602.4344,227.9063 Q601.3563,228.3594 600.0594,228.3594 Q598.5438,228.3594 597.3406,227.7344 Q596.3563,227.2344 595.6688,226.1719 Q594.9813,225.0938 594.9813,223.8125 L594.9813,222.6563 Q594.9813,221.3281 595.5906,220.1875 Q596.2156,219.0313 597.3094,218.4219 Q598.4031,217.7969 599.6375,217.7969 Q600.3719,217.7969 601.0125,217.9688 Q601.6688,218.125 602.2156,218.4844 Z " fill="#000000"/><text fill="#000000" font-family="sans-serif" font-size="14" lengthAdjust="spacing" textLength="42" x="618.55" y="228.3379">Goods</text><line style="stroke:#181818;stroke-width:0.5;" x1="562.5" x2="685.5" y1="238.6094" y2="238.6094"/><rect fill="none" height="6" style="stroke:#C82930;stroke-width:1.0;" width="6" x="569.5" y="249.9141"/><text fill="#000000" font-family="sans-serif" font-size="14" lengthAdjust="spacing" textLength="55" x="581.5" y="257.1426">GoodsID</text><rect fill="none" height="6" style="stroke:#C82930;stroke-width:1.0;" width="6" x="569.5" y="267.5234"/><text fill="#000000" font-family="sans-serif" font-size="14" lengthAdjust="spacing" textLength="27" x="581.5" y="274.752">Title</text><rect fill="none" height="6" style="stroke:#C82930;stroke-width:1.0;" width="6" x="569.5" y="285.1328"/><text fill="#000000" font-family="sans-serif" font-size="14" lengthAdjust="spacing" textLength="32" x="581.5" y="292.3613">Price</text><rect fill="none" height="6" style="stroke:#C82930;stroke-width:1.0;" width="6" x="569.5" y="302.7422"/><text fill="#000000" font-family="sans-serif" font-size="14" lengthAdjust="spacing" textLength="58" x="581.5" y="309.9707">Category</text><rect fill="none" height="6" style="stroke:#C82930;stroke-width:1.0;" width="6" x="569.5" y="320.3516"/><text fill="#000000" font-family="sans-serif" font-size="14" lengthAdjust="spacing" textLength="38" x="581.5" y="327.5801">Brand</text><rect fill="none" height="6" style="stroke:#C82930;stroke-width:1.0;" width="6" x="569.5" y="337.9609"/><text fill="#000000" font-family="sans-serif" font-size="14" lengthAdjust="spacing" textLength="34" x="581.5" y="345.1895">Color</text><rect fill="none" height="6" style="stroke:#C82930;stroke-width:1.0;" width="6" x="569.5" y="355.5703"/><text fill="#000000" font-family="sans-serif" font-size="14" lengthAdjust="spacing" textLength="44" x="581.5" y="362.7988">Weight</text><rect fill="none" height="6" style="stroke:#C82930;stroke-width:1.0;" width="6" x="569.5" y="373.1797"/><text fill="#000000" font-family="sans-serif" font-size="14" lengthAdjust="spacing" textLength="47" x="581.5" y="380.4082">Volume</text><rect fill="none" height="6" style="stroke:#C82930;stroke-width:1.0;" width="6" x="569.5" y="390.7891"/><text fill="#000000" font-family="sans-serif" font-size="14" lengthAdjust="spacing" textLength="99" x="581.5" y="398.0176">QuantityInStock</text><line style="stroke:#181818;stroke-width:0.5;" x1="562.5" x2="685.5" y1="405.0938" y2="405.0938"/></g><!--MD5=[017244e77023a598da2859a11fd9adee]
class PaymentStatus--><g id="elem_PaymentStatus"><rect codeLine="53" fill="#F1F1F1" height="83.2188" id="PaymentStatus" rx="2.5" ry="2.5" style="stroke:#181818;stroke-width:0.5;" width="134" x="722" y="268.1094"/><ellipse cx="740.15" cy="284.1094" fill="#ADD1B2" rx="11" ry="11" style="stroke:#181818;stroke-width:1.0;"/><path d="M742.9156,279.9844 Q743.0719,279.7656 743.2594,279.6563 Q743.4469,279.5469 743.6656,279.5469 Q744.0406,279.5469 744.275,279.8125 Q744.5094,280.0625 744.5094,280.6719 L744.5094,282.125 Q744.5094,282.7344 744.275,283 Q744.0406,283.2656 743.6656,283.2656 Q743.3219,283.2656 743.1188,283.0625 Q742.9156,282.875 742.8063,282.3594 Q742.7594,282 742.5719,281.8125 Q742.2438,281.4375 741.6344,281.2188 Q741.025,281 740.4,281 Q739.6344,281 738.9938,281.3281 Q738.3688,281.6563 737.8688,282.4063 Q737.3844,283.1563 737.3844,284.1875 L737.3844,285.2813 Q737.3844,286.5156 738.275,287.3438 Q739.1656,288.1563 740.7594,288.1563 Q741.6969,288.1563 742.3531,287.9063 Q742.7438,287.75 743.1656,287.3125 Q743.4313,287.0469 743.5719,286.9688 Q743.7281,286.8906 743.9313,286.8906 Q744.2594,286.8906 744.5094,287.1563 Q744.775,287.4063 744.775,287.75 Q744.775,288.0938 744.4313,288.5 Q743.9313,289.0781 743.1344,289.4063 Q742.0563,289.8594 740.7594,289.8594 Q739.2438,289.8594 738.0406,289.2344 Q737.0563,288.7344 736.3688,287.6719 Q735.6813,286.5938 735.6813,285.3125 L735.6813,284.1563 Q735.6813,282.8281 736.2906,281.6875 Q736.9156,280.5313 738.0094,279.9219 Q739.1031,279.2969 740.3375,279.2969 Q741.0719,279.2969 741.7125,279.4688 Q742.3688,279.625 742.9156,279.9844 Z " fill="#000000"/><text fill="#000000" font-family="sans-serif" font-size="14" lengthAdjust="spacing" textLength="95" x="754.85" y="289.8379">PaymentStatus</text><line style="stroke:#181818;stroke-width:0.5;" x1="723" x2="855" y1="300.1094" y2="300.1094"/><rect fill="none" height="6" style="stroke:#C82930;stroke-width:1.0;" width="6" x="730" y="311.4141"/><text fill="#000000" font-family="sans-serif" font-size="14" lengthAdjust="spacing" textLength="108" x="742" y="318.6426">PaymentStatusID</text><rect fill="none" height="6" style="stroke:#C82930;stroke-width:1.0;" width="6" x="730" y="329.0234"/><text fill="#000000" font-family="sans-serif" font-size="14" lengthAdjust="spacing" textLength="40" x="742" y="336.252">Status</text><line style="stroke:#181818;stroke-width:0.5;" x1="723" x2="855" y1="343.3281" y2="343.3281"/></g><!--MD5=[b4eabd1a63a4ad1f2f93b60573323bf1]
link Order to Client--><g id="link_Order_Client"><path codeLine="59" d="M319.35,112.7194 C268.43,129.8994 190.28,161.2394 134,206.6094 C124.41,214.3394 115.36,223.5094 107.07,233.1394 " fill="none" id="Order-Client" style="stroke:#181818;stroke-width:1.0;"/><text fill="#000000" font-family="sans-serif" font-size="13" lengthAdjust="spacing" textLength="7" x="304.5945" y="111.4621">1</text><text fill="#000000" font-family="sans-serif" font-size="13" lengthAdjust="spacing" textLength="7" x="112.5944" y="221.9594">1</text></g><!--MD5=[b05adcbffec5d3804005a864a41a5727]
link Order to ClientAddress--><g id="link_Order_ClientAddress"><path codeLine="60" d="M319.29,116.7694 C279.73,134.4294 226.88,164.1494 196,206.6094 C165.46,248.5994 137.63,382.7794 121.77,472.4094 " fill="none" id="Order-ClientAddress" style="stroke:#181818;stroke-width:1.0;"/><text fill="#000000" font-family="sans-serif" font-size="13" lengthAdjust="spacing" textLength="7" x="304.5261" y="134.3316">1</text><text fill="#000000" font-family="sans-serif" font-size="13" lengthAdjust="spacing" textLength="7" x="115.6526" y="461.8558">1</text></g><!--MD5=[d9aa18d087e76a117214f424264eda44]
link Order to PaymentMethod--><g id="link_Order_PaymentMethod"><path codeLine="61" d="M350.6,146.6994 C335.43,183.5694 314.99,233.2794 300.77,267.8494 " fill="none" id="Order-PaymentMethod" style="stroke:#181818;stroke-width:1.0;"/><text fill="#000000" font-family="sans-serif" font-size="13" lengthAdjust="spacing" textLength="7" x="340.3884" y="168.1027">1</text><text fill="#000000" font-family="sans-serif" font-size="13" lengthAdjust="spacing" textLength="7" x="295.9678" y="257.114">1</text></g><!--MD5=[84dcc2c6e0efe448cf08757a572c21b9]
link Order to DeliveryMethod--><g id="link_Order_DeliveryMethod"><path codeLine="62" d="M391.4,146.6994 C406.57,183.5694 427.01,233.2794 441.23,267.8494 " fill="none" id="Order-DeliveryMethod" style="stroke:#181818;stroke-width:1.0;"/><text fill="#000000" font-family="sans-serif" font-size="13" lengthAdjust="spacing" textLength="7" x="386.6709" y="168.1027">1</text><text fill="#000000" font-family="sans-serif" font-size="13" lengthAdjust="spacing" textLength="7" x="430.8728" y="257.114">1</text></g><!--MD5=[a5b52ab3be0ba19e247d2aeb80bc93f2]
link Order to Goods--><g id="link_Order_Goods"><path codeLine="63" d="M422.63,123.6294 C458.8,143.6194 507.08,173.2394 544,206.6094 C549.93,211.9694 555.75,217.7994 561.38,223.8694 " fill="none" id="Order-Goods" style="stroke:#181818;stroke-width:1.0;"/><text fill="#000000" font-family="sans-serif" font-size="13" lengthAdjust="spacing" textLength="7" x="430.3827" y="123.9063">1</text><text fill="#000000" font-family="sans-serif" font-size="13" lengthAdjust="spacing" textLength="20" x="533.4372" y="211.1044">0..*</text></g><!--MD5=[49614c14fa53f378828e399103c9de69]
link Order to PaymentStatus--><g id="link_Order_PaymentStatus"><path codeLine="64" d="M422.57,104.9194 C491.59,117.3094 615.54,146.4894 704,206.6094 C727.64,222.6794 748.32,247.1094 763.36,268.0294 " fill="none" id="Order-PaymentStatus" style="stroke:#181818;stroke-width:1.0;"/><text fill="#000000" font-family="sans-serif" font-size="13" lengthAdjust="spacing" textLength="7" x="430.6584" y="102.5719">1</text><text fill="#000000" font-family="sans-serif" font-size="13" lengthAdjust="spacing" textLength="7" x="751.5337" y="257.3238">1</text></g><!--MD5=[35095b52868acab7b89a0669072860d5]
link Client to ClientAddress--><g id="link_Client_ClientAddress"><path codeLine="65" d="M72.79,386.9194 C78.4,414.0594 84.76,444.7794 90.51,472.5794 " fill="none" id="Client-ClientAddress" style="stroke:#181818;stroke-width:1.0;"/><text fill="#000000" font-family="sans-serif" font-size="13" lengthAdjust="spacing" textLength="7" x="66.8462" y="407.7757">1</text><text fill="#000000" font-family="sans-serif" font-size="13" lengthAdjust="spacing" textLength="20" x="68.0617" y="461.7483">0..*</text></g><!--MD5=[f608bda839001ec80a8439dbd97e29a3]
@startuml OnlineStoreInformationSystem

!define ENTITY class

title Domain model class diagram  "Online Store Information System"

ENTITY Order {
  - OrderID
  - OrderDate
  - OrderStatus
}

ENTITY Client {
  - ClientID
  - Name
  - Surname
  - DateOfBirth
  - Email
  - Password
}

ENTITY ClientAddress {
  - AddressID
  - Country
  - City
  - PostalCode
  - Street
  - Home
  - Apartment
}

ENTITY PaymentMethod {
  - PaymentMethodID
  - MethodType
}

ENTITY DeliveryMethod {
  - DeliveryMethodID
  - MethodType
}

ENTITY Goods {
  - GoodsID
  - Title
  - Price
  - Category
  - Brand
  - Color
  - Weight
  - Volume
  - QuantityInStock
}

ENTITY PaymentStatus {
  - PaymentStatusID
  - Status
}


Order "1" - - "1" Client
Order "1" - - "1" ClientAddress
Order "1" - - "1" PaymentMethod
Order "1" - - "1" DeliveryMethod
Order "1" - - "0..*" Goods
Order "1" - - "1" PaymentStatus
Client "1" - - "0..*" ClientAddress

@enduml

@startuml OnlineStoreInformationSystem


title Domain model class diagram  "Online Store Information System"

class Order {
  - OrderID
  - OrderDate
  - OrderStatus
}

class Client {
  - ClientID
  - Name
  - Surname
  - DateOfBirth
  - Email
  - Password
}

class ClientAddress {
  - AddressID
  - Country
  - City
  - PostalCode
  - Street
  - Home
  - Apartment
}

class PaymentMethod {
  - PaymentMethodID
  - MethodType
}

class DeliveryMethod {
  - DeliveryMethodID
  - MethodType
}

class Goods {
  - GoodsID
  - Title
  - Price
  - Category
  - Brand
  - Color
  - Weight
  - Volume
  - QuantityInStock
}

class PaymentStatus {
  - PaymentStatusID
  - Status
}


Order "1" - - "1" Client
Order "1" - - "1" ClientAddress
Order "1" - - "1" PaymentMethod
Order "1" - - "1" DeliveryMethod
Order "1" - - "0..*" Goods
Order "1" - - "1" PaymentStatus
Client "1" - - "0..*" ClientAddress

@enduml

PlantUML version 1.2022.7(Mon Aug 22 19:01:30 CEST 2022)
(GPL source distribution)
Java Runtime: OpenJDK Runtime Environment
JVM: OpenJDK 64-Bit Server VM
Default Encoding: UTF-8
Language: ru
Country: RU
--></g></svg>