<?xml version="1.0" encoding="UTF-8" standalone="no"?><svg xmlns="http://www.w3.org/2000/svg" xmlns:xlink="http://www.w3.org/1999/xlink" contentStyleType="text/css" height="757px" preserveAspectRatio="none" style="width:812px;height:757px;background:#FFFFFF;" version="1.1" viewBox="0 0 812 757" width="812px" zoomAndPan="magnify"><defs/><g><rect fill="none" height="27.6094" id="_title" style="stroke:none;stroke-width:1.0;" width="457" x="170.5" y="5"/><text fill="#000000" font-family="sans-serif" font-size="14" font-weight="bold" lengthAdjust="spacing" textLength="447" x="175.5" y="24.5332">Domain model class diagram  "Online Store Information System"</text><!--MD5=[cf4d6237fcae255cd2e1656cf84a30e2]
class Order--><g id="elem_Order"><rect codeLine="6" fill="#F1F1F1" height="188.875" id="Order" rx="2.5" ry="2.5" style="stroke:#181818;stroke-width:0.5;" width="138" x="251" y="294.6094"/><ellipse cx="297.25" cy="310.6094" fill="#ADD1B2" rx="11" ry="11" style="stroke:#181818;stroke-width:1.0;"/><path d="M300.0156,306.4844 Q300.1719,306.2656 300.3594,306.1563 Q300.5469,306.0469 300.7656,306.0469 Q301.1406,306.0469 301.375,306.3125 Q301.6094,306.5625 301.6094,307.1719 L301.6094,308.625 Q301.6094,309.2344 301.375,309.5 Q301.1406,309.7656 300.7656,309.7656 Q300.4219,309.7656 300.2188,309.5625 Q300.0156,309.375 299.9063,308.8594 Q299.8594,308.5 299.6719,308.3125 Q299.3438,307.9375 298.7344,307.7188 Q298.125,307.5 297.5,307.5 Q296.7344,307.5 296.0938,307.8281 Q295.4688,308.1563 294.9688,308.9063 Q294.4844,309.6563 294.4844,310.6875 L294.4844,311.7813 Q294.4844,313.0156 295.375,313.8438 Q296.2656,314.6563 297.8594,314.6563 Q298.7969,314.6563 299.4531,314.4063 Q299.8438,314.25 300.2656,313.8125 Q300.5313,313.5469 300.6719,313.4688 Q300.8281,313.3906 301.0313,313.3906 Q301.3594,313.3906 301.6094,313.6563 Q301.875,313.9063 301.875,314.25 Q301.875,314.5938 301.5313,315 Q301.0313,315.5781 300.2344,315.9063 Q299.1563,316.3594 297.8594,316.3594 Q296.3438,316.3594 295.1406,315.7344 Q294.1563,315.2344 293.4688,314.1719 Q292.7813,313.0938 292.7813,311.8125 L292.7813,310.6563 Q292.7813,309.3281 293.3906,308.1875 Q294.0156,307.0313 295.1094,306.4219 Q296.2031,305.7969 297.4375,305.7969 Q298.1719,305.7969 298.8125,305.9688 Q299.4688,306.125 300.0156,306.4844 Z " fill="#000000"/><text fill="#000000" font-family="sans-serif" font-size="14" lengthAdjust="spacing" textLength="37" x="317.75" y="316.3379">Order</text><line style="stroke:#181818;stroke-width:0.5;" x1="252" x2="388" y1="326.6094" y2="326.6094"/><rect fill="none" height="6" style="stroke:#C82930;stroke-width:1.0;" width="6" x="259" y="337.9141"/><text fill="#000000" font-family="sans-serif" font-size="14" lengthAdjust="spacing" textLength="50" x="271" y="345.1426">OrderID</text><rect fill="none" height="6" style="stroke:#C82930;stroke-width:1.0;" width="6" x="259" y="355.5234"/><text fill="#000000" font-family="sans-serif" font-size="14" lengthAdjust="spacing" textLength="67" x="271" y="362.752">OrderDate</text><rect fill="none" height="6" style="stroke:#C82930;stroke-width:1.0;" width="6" x="259" y="373.1328"/><text fill="#000000" font-family="sans-serif" font-size="14" lengthAdjust="spacing" textLength="77" x="271" y="380.3613">OrderStatus</text><rect fill="none" height="6" style="stroke:#C82930;stroke-width:1.0;" width="6" x="259" y="390.7422"/><text fill="#000000" font-family="sans-serif" font-size="14" lengthAdjust="spacing" textLength="112" x="271" y="397.9707">{PaymentMethod}</text><rect fill="none" height="6" style="stroke:#C82930;stroke-width:1.0;" width="6" x="259" y="408.3516"/><text fill="#000000" font-family="sans-serif" font-size="14" lengthAdjust="spacing" textLength="108" x="271" y="415.5801">{DeliveryMethod}</text><rect fill="none" height="6" style="stroke:#C82930;stroke-width:1.0;" width="6" x="259" y="425.9609"/><text fill="#000000" font-family="sans-serif" font-size="14" lengthAdjust="spacing" textLength="52" x="271" y="433.1895">{Goods}</text><rect fill="none" height="6" style="stroke:#C82930;stroke-width:1.0;" width="6" x="259" y="443.5703"/><text fill="#000000" font-family="sans-serif" font-size="14" lengthAdjust="spacing" textLength="112" x="271" y="450.7988">{PaymentMethod}</text><rect fill="none" height="6" style="stroke:#C82930;stroke-width:1.0;" width="6" x="259" y="461.1797"/><text fill="#000000" font-family="sans-serif" font-size="14" lengthAdjust="spacing" textLength="98" x="271" y="468.4082">{ClientAddress}</text><line style="stroke:#181818;stroke-width:0.5;" x1="252" x2="388" y1="475.4844" y2="475.4844"/></g><!--MD5=[ed6624c6556d5e7b1bd23032162d20b7]
class Client--><g id="elem_Client"><rect codeLine="17" fill="#F1F1F1" height="188.875" id="Client" rx="2.5" ry="2.5" style="stroke:#181818;stroke-width:0.5;" width="124" x="175" y="45.6094"/><ellipse cx="215.2" cy="61.6094" fill="#ADD1B2" rx="11" ry="11" style="stroke:#181818;stroke-width:1.0;"/><path d="M217.9656,57.4844 Q218.1219,57.2656 218.3094,57.1563 Q218.4969,57.0469 218.7156,57.0469 Q219.0906,57.0469 219.325,57.3125 Q219.5594,57.5625 219.5594,58.1719 L219.5594,59.625 Q219.5594,60.2344 219.325,60.5 Q219.0906,60.7656 218.7156,60.7656 Q218.3719,60.7656 218.1688,60.5625 Q217.9656,60.375 217.8563,59.8594 Q217.8094,59.5 217.6219,59.3125 Q217.2938,58.9375 216.6844,58.7188 Q216.075,58.5 215.45,58.5 Q214.6844,58.5 214.0438,58.8281 Q213.4188,59.1563 212.9188,59.9063 Q212.4344,60.6563 212.4344,61.6875 L212.4344,62.7813 Q212.4344,64.0156 213.325,64.8438 Q214.2156,65.6563 215.8094,65.6563 Q216.7469,65.6563 217.4031,65.4063 Q217.7938,65.25 218.2156,64.8125 Q218.4813,64.5469 218.6219,64.4688 Q218.7781,64.3906 218.9813,64.3906 Q219.3094,64.3906 219.5594,64.6563 Q219.825,64.9063 219.825,65.25 Q219.825,65.5938 219.4813,66 Q218.9813,66.5781 218.1844,66.9063 Q217.1063,67.3594 215.8094,67.3594 Q214.2938,67.3594 213.0906,66.7344 Q212.1063,66.2344 211.4188,65.1719 Q210.7313,64.0938 210.7313,62.8125 L210.7313,61.6563 Q210.7313,60.3281 211.3406,59.1875 Q211.9656,58.0313 213.0594,57.4219 Q214.1531,56.7969 215.3875,56.7969 Q216.1219,56.7969 216.7625,56.9688 Q217.4188,57.125 217.9656,57.4844 Z " fill="#000000"/><text fill="#000000" font-family="sans-serif" font-size="14" lengthAdjust="spacing" textLength="36" x="234.8" y="67.3379">Client</text><line style="stroke:#181818;stroke-width:0.5;" x1="176" x2="298" y1="77.6094" y2="77.6094"/><rect fill="none" height="6" style="stroke:#C82930;stroke-width:1.0;" width="6" x="183" y="88.9141"/><text fill="#000000" font-family="sans-serif" font-size="14" lengthAdjust="spacing" textLength="49" x="195" y="96.1426">ClientID</text><rect fill="none" height="6" style="stroke:#C82930;stroke-width:1.0;" width="6" x="183" y="106.5234"/><text fill="#000000" font-family="sans-serif" font-size="14" lengthAdjust="spacing" textLength="36" x="195" y="113.752">Name</text><rect fill="none" height="6" style="stroke:#C82930;stroke-width:1.0;" width="6" x="183" y="124.1328"/><text fill="#000000" font-family="sans-serif" font-size="14" lengthAdjust="spacing" textLength="57" x="195" y="131.3613">Surname</text><rect fill="none" height="6" style="stroke:#C82930;stroke-width:1.0;" width="6" x="183" y="141.7422"/><text fill="#000000" font-family="sans-serif" font-size="14" lengthAdjust="spacing" textLength="74" x="195" y="148.9707">DateOfBirth</text><rect fill="none" height="6" style="stroke:#C82930;stroke-width:1.0;" width="6" x="183" y="159.3516"/><text fill="#000000" font-family="sans-serif" font-size="14" lengthAdjust="spacing" textLength="34" x="195" y="166.5801">Email</text><rect fill="none" height="6" style="stroke:#C82930;stroke-width:1.0;" width="6" x="183" y="176.9609"/><text fill="#000000" font-family="sans-serif" font-size="14" lengthAdjust="spacing" textLength="61" x="195" y="184.1895">Password</text><rect fill="none" height="6" style="stroke:#C82930;stroke-width:1.0;" width="6" x="183" y="194.5703"/><text fill="#000000" font-family="sans-serif" font-size="14" lengthAdjust="spacing" textLength="98" x="195" y="201.7988">{ClientAddress}</text><rect fill="none" height="6" style="stroke:#C82930;stroke-width:1.0;" width="6" x="183" y="212.1797"/><text fill="#000000" font-family="sans-serif" font-size="14" lengthAdjust="spacing" textLength="47" x="195" y="219.4082">{Order}</text><line style="stroke:#181818;stroke-width:0.5;" x1="176" x2="298" y1="226.4844" y2="226.4844"/></g><!--MD5=[283daf7a19cf2d424e19258613cc4d5f]
class ClientAddress--><g id="elem_ClientAddress"><rect codeLine="28" fill="#F1F1F1" height="171.2656" id="ClientAddress" rx="2.5" ry="2.5" style="stroke:#181818;stroke-width:0.5;" width="120" x="7" y="561.1094"/><ellipse cx="22" cy="577.1094" fill="#ADD1B2" rx="11" ry="11" style="stroke:#181818;stroke-width:1.0;"/><path d="M24.7656,572.9844 Q24.9219,572.7656 25.1094,572.6563 Q25.2969,572.5469 25.5156,572.5469 Q25.8906,572.5469 26.125,572.8125 Q26.3594,573.0625 26.3594,573.6719 L26.3594,575.125 Q26.3594,575.7344 26.125,576 Q25.8906,576.2656 25.5156,576.2656 Q25.1719,576.2656 24.9688,576.0625 Q24.7656,575.875 24.6563,575.3594 Q24.6094,575 24.4219,574.8125 Q24.0938,574.4375 23.4844,574.2188 Q22.875,574 22.25,574 Q21.4844,574 20.8438,574.3281 Q20.2188,574.6563 19.7188,575.4063 Q19.2344,576.1563 19.2344,577.1875 L19.2344,578.2813 Q19.2344,579.5156 20.125,580.3438 Q21.0156,581.1563 22.6094,581.1563 Q23.5469,581.1563 24.2031,580.9063 Q24.5938,580.75 25.0156,580.3125 Q25.2813,580.0469 25.4219,579.9688 Q25.5781,579.8906 25.7813,579.8906 Q26.1094,579.8906 26.3594,580.1563 Q26.625,580.4063 26.625,580.75 Q26.625,581.0938 26.2813,581.5 Q25.7813,582.0781 24.9844,582.4063 Q23.9063,582.8594 22.6094,582.8594 Q21.0938,582.8594 19.8906,582.2344 Q18.9063,581.7344 18.2188,580.6719 Q17.5313,579.5938 17.5313,578.3125 L17.5313,577.1563 Q17.5313,575.8281 18.1406,574.6875 Q18.7656,573.5313 19.8594,572.9219 Q20.9531,572.2969 22.1875,572.2969 Q22.9219,572.2969 23.5625,572.4688 Q24.2188,572.625 24.7656,572.9844 Z " fill="#000000"/><text fill="#000000" font-family="sans-serif" font-size="14" lengthAdjust="spacing" textLength="88" x="36" y="582.8379">ClientAddress</text><line style="stroke:#181818;stroke-width:0.5;" x1="8" x2="126" y1="593.1094" y2="593.1094"/><rect fill="none" height="6" style="stroke:#C82930;stroke-width:1.0;" width="6" x="15" y="604.4141"/><text fill="#000000" font-family="sans-serif" font-size="14" lengthAdjust="spacing" textLength="65" x="27" y="611.6426">AddressID</text><rect fill="none" height="6" style="stroke:#C82930;stroke-width:1.0;" width="6" x="15" y="622.0234"/><text fill="#000000" font-family="sans-serif" font-size="14" lengthAdjust="spacing" textLength="50" x="27" y="629.252">Country</text><rect fill="none" height="6" style="stroke:#C82930;stroke-width:1.0;" width="6" x="15" y="639.6328"/><text fill="#000000" font-family="sans-serif" font-size="14" lengthAdjust="spacing" textLength="24" x="27" y="646.8613">City</text><rect fill="none" height="6" style="stroke:#C82930;stroke-width:1.0;" width="6" x="15" y="657.2422"/><text fill="#000000" font-family="sans-serif" font-size="14" lengthAdjust="spacing" textLength="73" x="27" y="664.4707">PostalCode</text><rect fill="none" height="6" style="stroke:#C82930;stroke-width:1.0;" width="6" x="15" y="674.8516"/><text fill="#000000" font-family="sans-serif" font-size="14" lengthAdjust="spacing" textLength="38" x="27" y="682.0801">Street</text><rect fill="none" height="6" style="stroke:#C82930;stroke-width:1.0;" width="6" x="15" y="692.4609"/><text fill="#000000" font-family="sans-serif" font-size="14" lengthAdjust="spacing" textLength="36" x="27" y="699.6895">Home</text><rect fill="none" height="6" style="stroke:#C82930;stroke-width:1.0;" width="6" x="15" y="710.0703"/><text fill="#000000" font-family="sans-serif" font-size="14" lengthAdjust="spacing" textLength="65" x="27" y="717.2988">Apartment</text><line style="stroke:#181818;stroke-width:0.5;" x1="8" x2="126" y1="724.375" y2="724.375"/></g><!--MD5=[f6c77495e12a05eb94081b0ac09e8b1a]
class PaymentMethod--><g id="elem_PaymentMethod"><rect codeLine="38" fill="#F1F1F1" height="83.2188" id="PaymentMethod" rx="2.5" ry="2.5" style="stroke:#181818;stroke-width:0.5;" width="141" x="162.5" y="605.1094"/><ellipse cx="180.65" cy="621.1094" fill="#ADD1B2" rx="11" ry="11" style="stroke:#181818;stroke-width:1.0;"/><path d="M183.4156,616.9844 Q183.5719,616.7656 183.7594,616.6563 Q183.9469,616.5469 184.1656,616.5469 Q184.5406,616.5469 184.775,616.8125 Q185.0094,617.0625 185.0094,617.6719 L185.0094,619.125 Q185.0094,619.7344 184.775,620 Q184.5406,620.2656 184.1656,620.2656 Q183.8219,620.2656 183.6188,620.0625 Q183.4156,619.875 183.3063,619.3594 Q183.2594,619 183.0719,618.8125 Q182.7438,618.4375 182.1344,618.2188 Q181.525,618 180.9,618 Q180.1344,618 179.4938,618.3281 Q178.8688,618.6563 178.3688,619.4063 Q177.8844,620.1563 177.8844,621.1875 L177.8844,622.2813 Q177.8844,623.5156 178.775,624.3438 Q179.6656,625.1563 181.2594,625.1563 Q182.1969,625.1563 182.8531,624.9063 Q183.2438,624.75 183.6656,624.3125 Q183.9313,624.0469 184.0719,623.9688 Q184.2281,623.8906 184.4313,623.8906 Q184.7594,623.8906 185.0094,624.1563 Q185.275,624.4063 185.275,624.75 Q185.275,625.0938 184.9313,625.5 Q184.4313,626.0781 183.6344,626.4063 Q182.5563,626.8594 181.2594,626.8594 Q179.7438,626.8594 178.5406,626.2344 Q177.5563,625.7344 176.8688,624.6719 Q176.1813,623.5938 176.1813,622.3125 L176.1813,621.1563 Q176.1813,619.8281 176.7906,618.6875 Q177.4156,617.5313 178.5094,616.9219 Q179.6031,616.2969 180.8375,616.2969 Q181.5719,616.2969 182.2125,616.4688 Q182.8688,616.625 183.4156,616.9844 Z " fill="#000000"/><text fill="#000000" font-family="sans-serif" font-size="14" lengthAdjust="spacing" textLength="102" x="195.35" y="626.8379">PaymentMethod</text><line style="stroke:#181818;stroke-width:0.5;" x1="163.5" x2="302.5" y1="637.1094" y2="637.1094"/><rect fill="none" height="6" style="stroke:#C82930;stroke-width:1.0;" width="6" x="170.5" y="648.4141"/><text fill="#000000" font-family="sans-serif" font-size="14" lengthAdjust="spacing" textLength="115" x="182.5" y="655.6426">PaymentMethodID</text><rect fill="none" height="6" style="stroke:#C82930;stroke-width:1.0;" width="6" x="170.5" y="666.0234"/><text fill="#000000" font-family="sans-serif" font-size="14" lengthAdjust="spacing" textLength="79" x="182.5" y="673.252">MethodType</text><line style="stroke:#181818;stroke-width:0.5;" x1="163.5" x2="302.5" y1="680.3281" y2="680.3281"/></g><!--MD5=[6992e970d9102d4be5485e93c50e5315]
class DeliveryMethod--><g id="elem_DeliveryMethod"><rect codeLine="43" fill="#F1F1F1" height="83.2188" id="DeliveryMethod" rx="2.5" ry="2.5" style="stroke:#181818;stroke-width:0.5;" width="137" x="338.5" y="605.1094"/><ellipse cx="356.65" cy="621.1094" fill="#ADD1B2" rx="11" ry="11" style="stroke:#181818;stroke-width:1.0;"/><path d="M359.4156,616.9844 Q359.5719,616.7656 359.7594,616.6563 Q359.9469,616.5469 360.1656,616.5469 Q360.5406,616.5469 360.775,616.8125 Q361.0094,617.0625 361.0094,617.6719 L361.0094,619.125 Q361.0094,619.7344 360.775,620 Q360.5406,620.2656 360.1656,620.2656 Q359.8219,620.2656 359.6188,620.0625 Q359.4156,619.875 359.3063,619.3594 Q359.2594,619 359.0719,618.8125 Q358.7438,618.4375 358.1344,618.2188 Q357.525,618 356.9,618 Q356.1344,618 355.4938,618.3281 Q354.8688,618.6563 354.3688,619.4063 Q353.8844,620.1563 353.8844,621.1875 L353.8844,622.2813 Q353.8844,623.5156 354.775,624.3438 Q355.6656,625.1563 357.2594,625.1563 Q358.1969,625.1563 358.8531,624.9063 Q359.2438,624.75 359.6656,624.3125 Q359.9313,624.0469 360.0719,623.9688 Q360.2281,623.8906 360.4313,623.8906 Q360.7594,623.8906 361.0094,624.1563 Q361.275,624.4063 361.275,624.75 Q361.275,625.0938 360.9313,625.5 Q360.4313,626.0781 359.6344,626.4063 Q358.5563,626.8594 357.2594,626.8594 Q355.7438,626.8594 354.5406,626.2344 Q353.5563,625.7344 352.8688,624.6719 Q352.1813,623.5938 352.1813,622.3125 L352.1813,621.1563 Q352.1813,619.8281 352.7906,618.6875 Q353.4156,617.5313 354.5094,616.9219 Q355.6031,616.2969 356.8375,616.2969 Q357.5719,616.2969 358.2125,616.4688 Q358.8688,616.625 359.4156,616.9844 Z " fill="#000000"/><text fill="#000000" font-family="sans-serif" font-size="14" lengthAdjust="spacing" textLength="98" x="371.35" y="626.8379">DeliveryMethod</text><line style="stroke:#181818;stroke-width:0.5;" x1="339.5" x2="474.5" y1="637.1094" y2="637.1094"/><rect fill="none" height="6" style="stroke:#C82930;stroke-width:1.0;" width="6" x="346.5" y="648.4141"/><text fill="#000000" font-family="sans-serif" font-size="14" lengthAdjust="spacing" textLength="111" x="358.5" y="655.6426">DeliveryMethodID</text><rect fill="none" height="6" style="stroke:#C82930;stroke-width:1.0;" width="6" x="346.5" y="666.0234"/><text fill="#000000" font-family="sans-serif" font-size="14" lengthAdjust="spacing" textLength="79" x="358.5" y="673.252">MethodType</text><line style="stroke:#181818;stroke-width:0.5;" x1="339.5" x2="474.5" y1="680.3281" y2="680.3281"/></g><!--MD5=[d2c01ec770881ebd6af0e19ca2e9bc34]
class Goods--><g id="elem_Goods"><rect codeLine="48" fill="#F1F1F1" height="206.4844" id="Goods" rx="2.5" ry="2.5" style="stroke:#181818;stroke-width:0.5;" width="125" x="510.5" y="543.6094"/><ellipse cx="548.45" cy="559.6094" fill="#ADD1B2" rx="11" ry="11" style="stroke:#181818;stroke-width:1.0;"/><path d="M551.2156,555.4844 Q551.3719,555.2656 551.5594,555.1563 Q551.7469,555.0469 551.9656,555.0469 Q552.3406,555.0469 552.575,555.3125 Q552.8094,555.5625 552.8094,556.1719 L552.8094,557.625 Q552.8094,558.2344 552.575,558.5 Q552.3406,558.7656 551.9656,558.7656 Q551.6219,558.7656 551.4188,558.5625 Q551.2156,558.375 551.1063,557.8594 Q551.0594,557.5 550.8719,557.3125 Q550.5438,556.9375 549.9344,556.7188 Q549.325,556.5 548.7,556.5 Q547.9344,556.5 547.2938,556.8281 Q546.6688,557.1563 546.1688,557.9063 Q545.6844,558.6563 545.6844,559.6875 L545.6844,560.7813 Q545.6844,562.0156 546.575,562.8438 Q547.4656,563.6563 549.0594,563.6563 Q549.9969,563.6563 550.6531,563.4063 Q551.0438,563.25 551.4656,562.8125 Q551.7313,562.5469 551.8719,562.4688 Q552.0281,562.3906 552.2313,562.3906 Q552.5594,562.3906 552.8094,562.6563 Q553.075,562.9063 553.075,563.25 Q553.075,563.5938 552.7313,564 Q552.2313,564.5781 551.4344,564.9063 Q550.3563,565.3594 549.0594,565.3594 Q547.5438,565.3594 546.3406,564.7344 Q545.3563,564.2344 544.6688,563.1719 Q543.9813,562.0938 543.9813,560.8125 L543.9813,559.6563 Q543.9813,558.3281 544.5906,557.1875 Q545.2156,556.0313 546.3094,555.4219 Q547.4031,554.7969 548.6375,554.7969 Q549.3719,554.7969 550.0125,554.9688 Q550.6688,555.125 551.2156,555.4844 Z " fill="#000000"/><text fill="#000000" font-family="sans-serif" font-size="14" lengthAdjust="spacing" textLength="42" x="567.55" y="565.3379">Goods</text><line style="stroke:#181818;stroke-width:0.5;" x1="511.5" x2="634.5" y1="575.6094" y2="575.6094"/><rect fill="none" height="6" style="stroke:#C82930;stroke-width:1.0;" width="6" x="518.5" y="586.9141"/><text fill="#000000" font-family="sans-serif" font-size="14" lengthAdjust="spacing" textLength="55" x="530.5" y="594.1426">GoodsID</text><rect fill="none" height="6" style="stroke:#C82930;stroke-width:1.0;" width="6" x="518.5" y="604.5234"/><text fill="#000000" font-family="sans-serif" font-size="14" lengthAdjust="spacing" textLength="27" x="530.5" y="611.752">Title</text><rect fill="none" height="6" style="stroke:#C82930;stroke-width:1.0;" width="6" x="518.5" y="622.1328"/><text fill="#000000" font-family="sans-serif" font-size="14" lengthAdjust="spacing" textLength="32" x="530.5" y="629.3613">Price</text><rect fill="none" height="6" style="stroke:#C82930;stroke-width:1.0;" width="6" x="518.5" y="639.7422"/><text fill="#000000" font-family="sans-serif" font-size="14" lengthAdjust="spacing" textLength="58" x="530.5" y="646.9707">Category</text><rect fill="none" height="6" style="stroke:#C82930;stroke-width:1.0;" width="6" x="518.5" y="657.3516"/><text fill="#000000" font-family="sans-serif" font-size="14" lengthAdjust="spacing" textLength="38" x="530.5" y="664.5801">Brand</text><rect fill="none" height="6" style="stroke:#C82930;stroke-width:1.0;" width="6" x="518.5" y="674.9609"/><text fill="#000000" font-family="sans-serif" font-size="14" lengthAdjust="spacing" textLength="34" x="530.5" y="682.1895">Color</text><rect fill="none" height="6" style="stroke:#C82930;stroke-width:1.0;" width="6" x="518.5" y="692.5703"/><text fill="#000000" font-family="sans-serif" font-size="14" lengthAdjust="spacing" textLength="44" x="530.5" y="699.7988">Weight</text><rect fill="none" height="6" style="stroke:#C82930;stroke-width:1.0;" width="6" x="518.5" y="710.1797"/><text fill="#000000" font-family="sans-serif" font-size="14" lengthAdjust="spacing" textLength="47" x="530.5" y="717.4082">Volume</text><rect fill="none" height="6" style="stroke:#C82930;stroke-width:1.0;" width="6" x="518.5" y="727.7891"/><text fill="#000000" font-family="sans-serif" font-size="14" lengthAdjust="spacing" textLength="99" x="530.5" y="735.0176">QuantityInStock</text><line style="stroke:#181818;stroke-width:0.5;" x1="511.5" x2="634.5" y1="742.0938" y2="742.0938"/></g><!--MD5=[017244e77023a598da2859a11fd9adee]
class PaymentStatus--><g id="elem_PaymentStatus"><rect codeLine="60" fill="#F1F1F1" height="83.2188" id="PaymentStatus" rx="2.5" ry="2.5" style="stroke:#181818;stroke-width:0.5;" width="134" x="671" y="605.1094"/><ellipse cx="689.15" cy="621.1094" fill="#ADD1B2" rx="11" ry="11" style="stroke:#181818;stroke-width:1.0;"/><path d="M691.9156,616.9844 Q692.0719,616.7656 692.2594,616.6563 Q692.4469,616.5469 692.6656,616.5469 Q693.0406,616.5469 693.275,616.8125 Q693.5094,617.0625 693.5094,617.6719 L693.5094,619.125 Q693.5094,619.7344 693.275,620 Q693.0406,620.2656 692.6656,620.2656 Q692.3219,620.2656 692.1188,620.0625 Q691.9156,619.875 691.8063,619.3594 Q691.7594,619 691.5719,618.8125 Q691.2438,618.4375 690.6344,618.2188 Q690.025,618 689.4,618 Q688.6344,618 687.9938,618.3281 Q687.3688,618.6563 686.8688,619.4063 Q686.3844,620.1563 686.3844,621.1875 L686.3844,622.2813 Q686.3844,623.5156 687.275,624.3438 Q688.1656,625.1563 689.7594,625.1563 Q690.6969,625.1563 691.3531,624.9063 Q691.7438,624.75 692.1656,624.3125 Q692.4313,624.0469 692.5719,623.9688 Q692.7281,623.8906 692.9313,623.8906 Q693.2594,623.8906 693.5094,624.1563 Q693.775,624.4063 693.775,624.75 Q693.775,625.0938 693.4313,625.5 Q692.9313,626.0781 692.1344,626.4063 Q691.0563,626.8594 689.7594,626.8594 Q688.2438,626.8594 687.0406,626.2344 Q686.0563,625.7344 685.3688,624.6719 Q684.6813,623.5938 684.6813,622.3125 L684.6813,621.1563 Q684.6813,619.8281 685.2906,618.6875 Q685.9156,617.5313 687.0094,616.9219 Q688.1031,616.2969 689.3375,616.2969 Q690.0719,616.2969 690.7125,616.4688 Q691.3688,616.625 691.9156,616.9844 Z " fill="#000000"/><text fill="#000000" font-family="sans-serif" font-size="14" lengthAdjust="spacing" textLength="95" x="703.85" y="626.8379">PaymentStatus</text><line style="stroke:#181818;stroke-width:0.5;" x1="672" x2="804" y1="637.1094" y2="637.1094"/><rect fill="none" height="6" style="stroke:#C82930;stroke-width:1.0;" width="6" x="679" y="648.4141"/><text fill="#000000" font-family="sans-serif" font-size="14" lengthAdjust="spacing" textLength="108" x="691" y="655.6426">PaymentStatusID</text><rect fill="none" height="6" style="stroke:#C82930;stroke-width:1.0;" width="6" x="679" y="666.0234"/><text fill="#000000" font-family="sans-serif" font-size="14" lengthAdjust="spacing" textLength="40" x="691" y="673.252">Status</text><line style="stroke:#181818;stroke-width:0.5;" x1="672" x2="804" y1="680.3281" y2="680.3281"/></g><!--MD5=[879bec428a80d843af24dc47845bf14c]
link Client to Order--><g id="link_Client_Order"><path codeLine="66" d="M268.5,234.8394 C275.06,254.3594 281.97,274.9294 288.52,294.4394 " fill="none" id="Client-Order" style="stroke:#181818;stroke-width:1.0;"/><text fill="#000000" font-family="sans-serif" font-size="13" lengthAdjust="spacing" textLength="7" x="263.5563" y="255.8962">1</text><text fill="#000000" font-family="sans-serif" font-size="13" lengthAdjust="spacing" textLength="20" x="265.2146" y="283.772">0..*</text></g><!--MD5=[b05adcbffec5d3804005a864a41a5727]
link Order to ClientAddress--><g id="link_Order_ClientAddress"><path codeLine="67" d="M250.66,445.4694 C217.29,473.4394 177.57,508.7794 145,543.6094 C138.99,550.0394 132.97,556.9194 127.1,563.9494 " fill="none" id="Order-ClientAddress" style="stroke:#181818;stroke-width:1.0;"/><text fill="#000000" font-family="sans-serif" font-size="13" lengthAdjust="spacing" textLength="7" x="236.1484" y="447.9762">1</text><text fill="#000000" font-family="sans-serif" font-size="13" lengthAdjust="spacing" textLength="7" x="134.8513" y="550.4005">1</text></g><!--MD5=[d9aa18d087e76a117214f424264eda44]
link Order to PaymentMethod--><g id="link_Order_PaymentMethod"><path codeLine="68" d="M288.1,483.7994 C273.89,525.5294 257.9,572.4894 246.82,605.0294 " fill="none" id="Order-PaymentMethod" style="stroke:#181818;stroke-width:1.0;"/><text fill="#000000" font-family="sans-serif" font-size="13" lengthAdjust="spacing" textLength="7" x="278.5003" y="504.8533">1</text><text fill="#000000" font-family="sans-serif" font-size="13" lengthAdjust="spacing" textLength="22" x="225.2871" y="594.3238">1..3</text></g><!--MD5=[84dcc2c6e0efe448cf08757a572c21b9]
link Order to DeliveryMethod--><g id="link_Order_DeliveryMethod"><path codeLine="69" d="M351.9,483.7994 C366.11,525.5294 382.1,572.4894 393.18,605.0294 " fill="none" id="Order-DeliveryMethod" style="stroke:#181818;stroke-width:1.0;"/><text fill="#000000" font-family="sans-serif" font-size="13" lengthAdjust="spacing" textLength="7" x="346.9856" y="504.8533">1</text><text fill="#000000" font-family="sans-serif" font-size="13" lengthAdjust="spacing" textLength="22" x="367.0692" y="594.3238">1..2</text></g><!--MD5=[a5b52ab3be0ba19e247d2aeb80bc93f2]
link Order to Goods--><g id="link_Order_Goods"><path codeLine="70" d="M389.15,446.4694 C421.9,474.3994 460.8,509.3994 493,543.6094 C498.78,549.7594 504.59,556.2894 510.29,562.9694 " fill="none" id="Order-Goods" style="stroke:#181818;stroke-width:1.0;"/><text fill="#000000" font-family="sans-serif" font-size="13" lengthAdjust="spacing" textLength="7" x="397.0961" y="449.3893">1</text><text fill="#000000" font-family="sans-serif" font-size="13" lengthAdjust="spacing" textLength="20" x="482.3373" y="550.4341">0..*</text></g><!--MD5=[49614c14fa53f378828e399103c9de69]
link Order to PaymentStatus--><g id="link_Order_PaymentStatus"><path codeLine="71" d="M389.27,411.8494 C460.23,436.3394 571.4,481.0594 653,543.6094 C675.32,560.7194 695.67,584.6894 710.86,605.0894 " fill="none" id="Order-PaymentStatus" style="stroke:#181818;stroke-width:1.0;"/><text fill="#000000" font-family="sans-serif" font-size="13" lengthAdjust="spacing" textLength="7" x="396.7744" y="410.8891">1</text><text fill="#000000" font-family="sans-serif" font-size="13" lengthAdjust="spacing" textLength="7" x="698.7853" y="594.3937">1</text></g><!--MD5=[35095b52868acab7b89a0669072860d5]
link Client to ClientAddress--><g id="link_Client_ClientAddress"><path codeLine="72" d="M205.42,234.8194 C173.93,328.2894 125.98,470.5894 95.58,560.7894 " fill="none" id="Client-ClientAddress" style="stroke:#181818;stroke-width:1.0;"/><text fill="#000000" font-family="sans-serif" font-size="13" lengthAdjust="spacing" textLength="7" x="195.8438" y="255.8748">1</text><text fill="#000000" font-family="sans-serif" font-size="13" lengthAdjust="spacing" textLength="20" x="77.1767" y="550.2255">0..*</text></g><!--MD5=[6207398e5144e9ffb0f37c3370f53670]
@startuml OnlineStoreInformationSystem

!define ENTITY class

title Domain model class diagram  "Online Store Information System"

ENTITY Order {
  - OrderID
  - OrderDate
  - OrderStatus
  - {PaymentMethod}
  - {DeliveryMethod}
  - {Goods}
  - {PaymentMethod}
  - {ClientAddress}
}

ENTITY Client {
  - ClientID
  - Name
  - Surname
  - DateOfBirth
  - Email
  - Password
  - {ClientAddress}
  - {Order}
}

ENTITY ClientAddress {
  - AddressID
  - Country
  - City
  - PostalCode
  - Street
  - Home
  - Apartment
}

ENTITY PaymentMethod {
  - PaymentMethodID
  - MethodType
}

ENTITY DeliveryMethod {
  - DeliveryMethodID
  - MethodType
}

ENTITY Goods {
  - GoodsID
  - Title
  - Price
  - Category
  - Brand
  - Color
  - Weight
  - Volume
  - QuantityInStock
}

ENTITY PaymentStatus {
  - PaymentStatusID
  - Status
}


Client "1" - - "0..*" Order  
Order "1" - - "1" ClientAddress
Order "1" - - "1..3" PaymentMethod
Order "1" - - "1..2" DeliveryMethod
Order "1" - - "0..*" Goods
Order "1" - - "1" PaymentStatus
Client "1" - - "0..*" ClientAddress

@enduml

@startuml OnlineStoreInformationSystem


title Domain model class diagram  "Online Store Information System"

class Order {
  - OrderID
  - OrderDate
  - OrderStatus
  - {PaymentMethod}
  - {DeliveryMethod}
  - {Goods}
  - {PaymentMethod}
  - {ClientAddress}
}

class Client {
  - ClientID
  - Name
  - Surname
  - DateOfBirth
  - Email
  - Password
  - {ClientAddress}
  - {Order}
}

class ClientAddress {
  - AddressID
  - Country
  - City
  - PostalCode
  - Street
  - Home
  - Apartment
}

class PaymentMethod {
  - PaymentMethodID
  - MethodType
}

class DeliveryMethod {
  - DeliveryMethodID
  - MethodType
}

class Goods {
  - GoodsID
  - Title
  - Price
  - Category
  - Brand
  - Color
  - Weight
  - Volume
  - QuantityInStock
}

class PaymentStatus {
  - PaymentStatusID
  - Status
}


Client "1" - - "0..*" Order  
Order "1" - - "1" ClientAddress
Order "1" - - "1..3" PaymentMethod
Order "1" - - "1..2" DeliveryMethod
Order "1" - - "0..*" Goods
Order "1" - - "1" PaymentStatus
Client "1" - - "0..*" ClientAddress

@enduml

PlantUML version 1.2022.7(Mon Aug 22 19:01:30 CEST 2022)
(GPL source distribution)
Java Runtime: OpenJDK Runtime Environment
JVM: OpenJDK 64-Bit Server VM
Default Encoding: UTF-8
Language: ru
Country: RU
--></g></svg>