<?xml version="1.0" encoding="us-ascii" standalone="no"?><svg xmlns="http://www.w3.org/2000/svg" xmlns:xlink="http://www.w3.org/1999/xlink" contentStyleType="text/css" height="454.2px" preserveAspectRatio="none" style="width:501px;height:454px;background:#FFFFFF;" version="1.1" viewBox="0 0 501 454" width="501.6px" zoomAndPan="magnify"><defs/><g><text fill="#000000" font-family="sans-serif" font-size="8.4" font-weight="bold" lengthAdjust="spacing" textLength="268.2" x="112.65" y="14.7199">Domain model class diagram  "Online Store Information System"</text><!--class Order--><g id="elem_Order"><rect codeLine="6" fill="#F1F1F1" height="113.325" id="Order" rx="1.5" ry="1.5" style="stroke:#181818;stroke-width:0.3;" width="89.4" x="162" y="176.7656"/><ellipse cx="193.05" cy="186.3656" fill="#ADD1B2" rx="6.6" ry="6.6" style="stroke:#181818;stroke-width:0.6;"/><path d="M194.25,184.2656 Q194.3719,183.9656 194.5125,183.8156 Q194.6531,183.6656 194.8125,183.6656 Q195.0938,183.6656 195.2719,183.8344 Q195.45,184.0031 195.45,184.3969 L195.45,185.3344 Q195.45,185.7281 195.2813,185.8969 Q195.1125,186.0656 194.85,186.0656 Q194.6156,186.0656 194.4656,185.9625 Q194.3156,185.8594 194.25,185.5875 Q194.2219,185.4 194.1188,185.2969 Q193.9313,185.1 193.5938,184.9875 Q193.2563,184.8656 192.9188,184.8656 Q192.4969,184.8656 192.1406,185.0344 Q191.7938,185.2031 191.5219,185.5781 Q191.25,185.9531 191.25,186.4688 L191.25,187.0219 Q191.25,187.6406 191.7563,188.0531 Q192.2625,188.4656 193.1625,188.4656 Q193.6969,188.4656 194.0719,188.3438 Q194.2875,188.2781 194.5313,188.0625 Q194.6906,187.9406 194.775,187.9031 Q194.8594,187.8656 194.9625,187.8656 Q195.1594,187.8656 195.3,188.025 Q195.45,188.175 195.45,188.3906 Q195.45,188.5969 195.2438,188.8406 Q194.9438,189.1969 194.4656,189.3937 Q193.8375,189.6656 193.0688,189.6656 Q192.1688,189.6656 191.4469,189.3094 Q190.8656,189.0281 190.4531,188.4188 Q190.05,187.8094 190.05,187.0875 L190.05,186.4313 Q190.05,185.6813 190.4063,185.025 Q190.7719,184.3688 191.4,184.0219 Q192.0375,183.6656 192.75,183.6656 Q193.1813,183.6656 193.5563,183.8156 Q193.9313,183.9656 194.25,184.2656 Z " fill="#000000"/><text fill="#000000" font-family="sans-serif" font-size="8.4" lengthAdjust="spacing" textLength="22.2" x="205.35" y="189.8027">Order</text><line style="stroke:#181818;stroke-width:0.3;" x1="162.6" x2="250.8" y1="195.9656" y2="195.9656"/><rect fill="none" height="3.6" style="stroke:#C82930;stroke-width:0.6;" width="3.6" x="166.8" y="202.7484"/><text fill="#000000" font-family="sans-serif" font-size="8.4" lengthAdjust="spacing" textLength="30" x="174" y="207.0855">OrderID</text><rect fill="none" height="3.6" style="stroke:#C82930;stroke-width:0.6;" width="3.6" x="166.8" y="213.3141"/><text fill="#000000" font-family="sans-serif" font-size="8.4" lengthAdjust="spacing" textLength="40.2" x="174" y="217.6512">OrderDate</text><rect fill="none" height="3.6" style="stroke:#C82930;stroke-width:0.6;" width="3.6" x="166.8" y="223.8797"/><text fill="#000000" font-family="sans-serif" font-size="8.4" lengthAdjust="spacing" textLength="46.2" x="174" y="228.2168">OrderStatus</text><rect fill="none" height="3.6" style="stroke:#C82930;stroke-width:0.6;" width="3.6" x="166.8" y="234.4453"/><text fill="#000000" font-family="sans-serif" font-size="8.4" lengthAdjust="spacing" textLength="67.2" x="174" y="238.7824">{PaymentMethod}</text><rect fill="none" height="3.6" style="stroke:#C82930;stroke-width:0.6;" width="3.6" x="166.8" y="245.0109"/><text fill="#000000" font-family="sans-serif" font-size="8.4" lengthAdjust="spacing" textLength="64.8" x="174" y="249.348">{DeliveryMethod}</text><rect fill="none" height="3.6" style="stroke:#C82930;stroke-width:0.6;" width="3.6" x="166.8" y="255.5766"/><text fill="#000000" font-family="sans-serif" font-size="8.4" lengthAdjust="spacing" textLength="35.4" x="174" y="259.9137">{Product}</text><rect fill="none" height="3.6" style="stroke:#C82930;stroke-width:0.6;" width="3.6" x="166.8" y="266.1422"/><text fill="#000000" font-family="sans-serif" font-size="8.4" lengthAdjust="spacing" textLength="67.2" x="174" y="270.4793">{PaymentMethod}</text><rect fill="none" height="3.6" style="stroke:#C82930;stroke-width:0.6;" width="3.6" x="166.8" y="276.7078"/><text fill="#000000" font-family="sans-serif" font-size="8.4" lengthAdjust="spacing" textLength="73.8" x="174" y="281.0449">{CustomerAddress}</text><line style="stroke:#181818;stroke-width:0.3;" x1="162.6" x2="250.8" y1="285.2906" y2="285.2906"/></g><!--class Customer--><g id="elem_Customer"><rect codeLine="17" fill="#F1F1F1" height="113.325" id="Customer" rx="1.5" ry="1.5" style="stroke:#181818;stroke-width:0.3;" width="74.4" x="116.1" y="27.3656"/><ellipse cx="133.47" cy="36.9656" fill="#ADD1B2" rx="6.6" ry="6.6" style="stroke:#181818;stroke-width:0.6;"/><path d="M134.67,34.8656 Q134.7919,34.5656 134.9325,34.4156 Q135.0731,34.2656 135.2325,34.2656 Q135.5138,34.2656 135.6919,34.4344 Q135.87,34.6031 135.87,34.9969 L135.87,35.9344 Q135.87,36.3281 135.7013,36.4969 Q135.5325,36.6656 135.27,36.6656 Q135.0356,36.6656 134.8856,36.5625 Q134.7356,36.4594 134.67,36.1875 Q134.6419,36 134.5388,35.8969 Q134.3513,35.7 134.0138,35.5875 Q133.6762,35.4656 133.3387,35.4656 Q132.9169,35.4656 132.5606,35.6344 Q132.2137,35.8031 131.9419,36.1781 Q131.67,36.5531 131.67,37.0688 L131.67,37.6219 Q131.67,38.2406 132.1762,38.6531 Q132.6825,39.0656 133.5825,39.0656 Q134.1169,39.0656 134.4919,38.9438 Q134.7075,38.8781 134.9513,38.6625 Q135.1106,38.5406 135.195,38.5031 Q135.2794,38.4656 135.3825,38.4656 Q135.5794,38.4656 135.72,38.625 Q135.87,38.775 135.87,38.9906 Q135.87,39.1969 135.6638,39.4406 Q135.3637,39.7969 134.8856,39.9938 Q134.2575,40.2656 133.4887,40.2656 Q132.5887,40.2656 131.8669,39.9094 Q131.2856,39.6281 130.8731,39.0188 Q130.47,38.4094 130.47,37.6875 L130.47,37.0313 Q130.47,36.2813 130.8263,35.625 Q131.1919,34.9688 131.82,34.6219 Q132.4575,34.2656 133.17,34.2656 Q133.6013,34.2656 133.9763,34.4156 Q134.3513,34.5656 134.67,34.8656 Z " fill="#000000"/><text fill="#000000" font-family="sans-serif" font-size="8.4" lengthAdjust="spacing" textLength="36.6" x="143.73" y="40.4027">Customer</text><line style="stroke:#181818;stroke-width:0.3;" x1="116.7" x2="189.9" y1="46.5656" y2="46.5656"/><rect fill="none" height="3.6" style="stroke:#C82930;stroke-width:0.6;" width="3.6" x="120.9" y="53.3484"/><text fill="#000000" font-family="sans-serif" font-size="8.4" lengthAdjust="spacing" textLength="44.4" x="128.1" y="57.6855">CustomerID</text><rect fill="none" height="3.6" style="stroke:#C82930;stroke-width:0.6;" width="3.6" x="120.9" y="63.9141"/><text fill="#000000" font-family="sans-serif" font-size="8.4" lengthAdjust="spacing" textLength="21.6" x="128.1" y="68.2512">Name</text><rect fill="none" height="3.6" style="stroke:#C82930;stroke-width:0.6;" width="3.6" x="120.9" y="74.4797"/><text fill="#000000" font-family="sans-serif" font-size="8.4" lengthAdjust="spacing" textLength="34.2" x="128.1" y="78.8168">Surname</text><rect fill="none" height="3.6" style="stroke:#C82930;stroke-width:0.6;" width="3.6" x="120.9" y="85.0453"/><text fill="#000000" font-family="sans-serif" font-size="8.4" lengthAdjust="spacing" textLength="44.4" x="128.1" y="89.3824">DateOfBirth</text><rect fill="none" height="3.6" style="stroke:#C82930;stroke-width:0.6;" width="3.6" x="120.9" y="95.6109"/><text fill="#000000" font-family="sans-serif" font-size="8.4" lengthAdjust="spacing" textLength="20.4" x="128.1" y="99.948">Email</text><rect fill="none" height="3.6" style="stroke:#C82930;stroke-width:0.6;" width="3.6" x="120.9" y="106.1766"/><text fill="#000000" font-family="sans-serif" font-size="8.4" lengthAdjust="spacing" textLength="36.6" x="128.1" y="110.5137">Password</text><rect fill="none" height="3.6" style="stroke:#C82930;stroke-width:0.6;" width="3.6" x="120.9" y="116.7422"/><text fill="#000000" font-family="sans-serif" font-size="8.4" lengthAdjust="spacing" textLength="58.8" x="128.1" y="121.0793">{ClientAddress}</text><rect fill="none" height="3.6" style="stroke:#C82930;stroke-width:0.6;" width="3.6" x="120.9" y="127.3078"/><text fill="#000000" font-family="sans-serif" font-size="8.4" lengthAdjust="spacing" textLength="28.2" x="128.1" y="131.6449">{Order}</text><line style="stroke:#181818;stroke-width:0.3;" x1="116.7" x2="189.9" y1="135.8906" y2="135.8906"/></g><!--class CustomerAddress--><g id="elem_CustomerAddress"><rect codeLine="28" fill="#F1F1F1" height="102.7594" id="CustomerAddress" rx="1.5" ry="1.5" style="stroke:#181818;stroke-width:0.3;" width="87" x="4.2" y="336.6656"/><ellipse cx="13.2" cy="346.2656" fill="#ADD1B2" rx="6.6" ry="6.6" style="stroke:#181818;stroke-width:0.6;"/><path d="M14.4,344.1656 Q14.5219,343.8656 14.6625,343.7156 Q14.8031,343.5656 14.9625,343.5656 Q15.2437,343.5656 15.4219,343.7344 Q15.6,343.9031 15.6,344.2969 L15.6,345.2344 Q15.6,345.6281 15.4312,345.7969 Q15.2625,345.9656 15,345.9656 Q14.7656,345.9656 14.6156,345.8625 Q14.4656,345.7594 14.4,345.4875 Q14.3719,345.3 14.2687,345.1969 Q14.0812,345 13.7438,344.8875 Q13.4063,344.7656 13.0688,344.7656 Q12.6469,344.7656 12.2906,344.9344 Q11.9438,345.1031 11.6719,345.4781 Q11.4,345.8531 11.4,346.3688 L11.4,346.9219 Q11.4,347.5406 11.9063,347.9531 Q12.4125,348.3656 13.3125,348.3656 Q13.8469,348.3656 14.2219,348.2438 Q14.4375,348.1781 14.6812,347.9625 Q14.8406,347.8406 14.925,347.8031 Q15.0094,347.7656 15.1125,347.7656 Q15.3094,347.7656 15.45,347.925 Q15.6,348.075 15.6,348.2906 Q15.6,348.4969 15.3937,348.7406 Q15.0938,349.0969 14.6156,349.2938 Q13.9875,349.5656 13.2188,349.5656 Q12.3188,349.5656 11.5969,349.2094 Q11.0156,348.9281 10.6031,348.3187 Q10.2,347.7094 10.2,346.9875 L10.2,346.3313 Q10.2,345.5813 10.5563,344.925 Q10.9219,344.2688 11.55,343.9219 Q12.1875,343.5656 12.9,343.5656 Q13.3312,343.5656 13.7062,343.7156 Q14.0812,343.8656 14.4,344.1656 Z " fill="#000000"/><text fill="#000000" font-family="sans-serif" font-size="8.4" lengthAdjust="spacing" textLength="67.8" x="21.6" y="349.7027">CustomerAddress</text><line style="stroke:#181818;stroke-width:0.3;" x1="4.8" x2="90.6" y1="355.8656" y2="355.8656"/><rect fill="none" height="3.6" style="stroke:#C82930;stroke-width:0.6;" width="3.6" x="9" y="362.6484"/><text fill="#000000" font-family="sans-serif" font-size="8.4" lengthAdjust="spacing" textLength="39" x="16.2" y="366.9855">AddressID</text><rect fill="none" height="3.6" style="stroke:#C82930;stroke-width:0.6;" width="3.6" x="9" y="373.2141"/><text fill="#000000" font-family="sans-serif" font-size="8.4" lengthAdjust="spacing" textLength="30" x="16.2" y="377.5512">Country</text><rect fill="none" height="3.6" style="stroke:#C82930;stroke-width:0.6;" width="3.6" x="9" y="383.7797"/><text fill="#000000" font-family="sans-serif" font-size="8.4" lengthAdjust="spacing" textLength="14.4" x="16.2" y="388.1168">City</text><rect fill="none" height="3.6" style="stroke:#C82930;stroke-width:0.6;" width="3.6" x="9" y="394.3453"/><text fill="#000000" font-family="sans-serif" font-size="8.4" lengthAdjust="spacing" textLength="43.8" x="16.2" y="398.6824">PostalCode</text><rect fill="none" height="3.6" style="stroke:#C82930;stroke-width:0.6;" width="3.6" x="9" y="404.9109"/><text fill="#000000" font-family="sans-serif" font-size="8.4" lengthAdjust="spacing" textLength="22.8" x="16.2" y="409.248">Street</text><rect fill="none" height="3.6" style="stroke:#C82930;stroke-width:0.6;" width="3.6" x="9" y="415.4766"/><text fill="#000000" font-family="sans-serif" font-size="8.4" lengthAdjust="spacing" textLength="21.6" x="16.2" y="419.8137">Home</text><rect fill="none" height="3.6" style="stroke:#C82930;stroke-width:0.6;" width="3.6" x="9" y="426.0422"/><text fill="#000000" font-family="sans-serif" font-size="8.4" lengthAdjust="spacing" textLength="39" x="16.2" y="430.3793">Apartment</text><line style="stroke:#181818;stroke-width:0.3;" x1="4.8" x2="90.6" y1="434.625" y2="434.625"/></g><!--class PaymentMethod--><g id="elem_PaymentMethod"><rect codeLine="38" fill="#F1F1F1" height="49.9313" id="PaymentMethod" rx="1.5" ry="1.5" style="stroke:#181818;stroke-width:0.3;" width="84.6" x="112.2" y="363.0656"/><ellipse cx="123.09" cy="372.6656" fill="#ADD1B2" rx="6.6" ry="6.6" style="stroke:#181818;stroke-width:0.6;"/><path d="M124.29,370.5656 Q124.4119,370.2656 124.5525,370.1156 Q124.6931,369.9656 124.8525,369.9656 Q125.1337,369.9656 125.3119,370.1344 Q125.49,370.3031 125.49,370.6969 L125.49,371.6344 Q125.49,372.0281 125.3212,372.1969 Q125.1525,372.3656 124.89,372.3656 Q124.6556,372.3656 124.5056,372.2625 Q124.3556,372.1594 124.29,371.8875 Q124.2619,371.7 124.1588,371.5969 Q123.9713,371.4 123.6337,371.2875 Q123.2963,371.1656 122.9588,371.1656 Q122.5369,371.1656 122.1806,371.3344 Q121.8338,371.5031 121.5619,371.8781 Q121.29,372.2531 121.29,372.7688 L121.29,373.3219 Q121.29,373.9406 121.7963,374.3531 Q122.3025,374.7656 123.2025,374.7656 Q123.7369,374.7656 124.1119,374.6438 Q124.3275,374.5781 124.5712,374.3625 Q124.7306,374.2406 124.815,374.2031 Q124.8994,374.1656 125.0025,374.1656 Q125.1994,374.1656 125.34,374.325 Q125.49,374.475 125.49,374.6906 Q125.49,374.8969 125.2838,375.1406 Q124.9838,375.4969 124.5056,375.6937 Q123.8775,375.9656 123.1088,375.9656 Q122.2088,375.9656 121.4869,375.6094 Q120.9056,375.3281 120.4931,374.7188 Q120.09,374.1094 120.09,373.3875 L120.09,372.7313 Q120.09,371.9813 120.4462,371.325 Q120.8119,370.6688 121.44,370.3219 Q122.0775,369.9656 122.79,369.9656 Q123.2213,369.9656 123.5963,370.1156 Q123.9713,370.2656 124.29,370.5656 Z " fill="#000000"/><text fill="#000000" font-family="sans-serif" font-size="8.4" lengthAdjust="spacing" textLength="61.2" x="131.91" y="376.1027">PaymentMethod</text><line style="stroke:#181818;stroke-width:0.3;" x1="112.8" x2="196.2" y1="382.2656" y2="382.2656"/><rect fill="none" height="3.6" style="stroke:#C82930;stroke-width:0.6;" width="3.6" x="117" y="389.0484"/><text fill="#000000" font-family="sans-serif" font-size="8.4" lengthAdjust="spacing" textLength="69" x="124.2" y="393.3855">PaymentMethodID</text><rect fill="none" height="3.6" style="stroke:#C82930;stroke-width:0.6;" width="3.6" x="117" y="399.6141"/><text fill="#000000" font-family="sans-serif" font-size="8.4" lengthAdjust="spacing" textLength="47.4" x="124.2" y="403.9512">MethodType</text><line style="stroke:#181818;stroke-width:0.3;" x1="112.8" x2="196.2" y1="408.1969" y2="408.1969"/></g><!--class DeliveryMethod--><g id="elem_DeliveryMethod"><rect codeLine="43" fill="#F1F1F1" height="49.9313" id="DeliveryMethod" rx="1.5" ry="1.5" style="stroke:#181818;stroke-width:0.3;" width="82.2" x="217.8" y="363.0656"/><ellipse cx="228.69" cy="372.6656" fill="#ADD1B2" rx="6.6" ry="6.6" style="stroke:#181818;stroke-width:0.6;"/><path d="M229.89,370.5656 Q230.0119,370.2656 230.1525,370.1156 Q230.2931,369.9656 230.4525,369.9656 Q230.7338,369.9656 230.9119,370.1344 Q231.09,370.3031 231.09,370.6969 L231.09,371.6344 Q231.09,372.0281 230.9213,372.1969 Q230.7525,372.3656 230.49,372.3656 Q230.2556,372.3656 230.1056,372.2625 Q229.9556,372.1594 229.89,371.8875 Q229.8619,371.7 229.7588,371.5969 Q229.5713,371.4 229.2338,371.2875 Q228.8962,371.1656 228.5587,371.1656 Q228.1369,371.1656 227.7806,371.3344 Q227.4337,371.5031 227.1619,371.8781 Q226.89,372.2531 226.89,372.7688 L226.89,373.3219 Q226.89,373.9406 227.3962,374.3531 Q227.9025,374.7656 228.8025,374.7656 Q229.3369,374.7656 229.7119,374.6438 Q229.9275,374.5781 230.1713,374.3625 Q230.3306,374.2406 230.415,374.2031 Q230.4994,374.1656 230.6025,374.1656 Q230.7994,374.1656 230.94,374.325 Q231.09,374.475 231.09,374.6906 Q231.09,374.8969 230.8837,375.1406 Q230.5837,375.4969 230.1056,375.6937 Q229.4775,375.9656 228.7087,375.9656 Q227.8087,375.9656 227.0869,375.6094 Q226.5056,375.3281 226.0931,374.7188 Q225.69,374.1094 225.69,373.3875 L225.69,372.7313 Q225.69,371.9813 226.0463,371.325 Q226.4119,370.6688 227.04,370.3219 Q227.6775,369.9656 228.39,369.9656 Q228.8213,369.9656 229.1963,370.1156 Q229.5713,370.2656 229.89,370.5656 Z " fill="#000000"/><text fill="#000000" font-family="sans-serif" font-size="8.4" lengthAdjust="spacing" textLength="58.8" x="237.51" y="376.1027">DeliveryMethod</text><line style="stroke:#181818;stroke-width:0.3;" x1="218.4" x2="299.4" y1="382.2656" y2="382.2656"/><rect fill="none" height="3.6" style="stroke:#C82930;stroke-width:0.6;" width="3.6" x="222.6" y="389.0484"/><text fill="#000000" font-family="sans-serif" font-size="8.4" lengthAdjust="spacing" textLength="66.6" x="229.8" y="393.3855">DeliveryMethodID</text><rect fill="none" height="3.6" style="stroke:#C82930;stroke-width:0.6;" width="3.6" x="222.6" y="399.6141"/><text fill="#000000" font-family="sans-serif" font-size="8.4" lengthAdjust="spacing" textLength="47.4" x="229.8" y="403.9512">MethodType</text><line style="stroke:#181818;stroke-width:0.3;" x1="218.4" x2="299.4" y1="408.1969" y2="408.1969"/></g><!--class Product--><g id="elem_Product"><rect codeLine="48" fill="#F1F1F1" height="123.8906" id="Product" rx="1.5" ry="1.5" style="stroke:#181818;stroke-width:0.3;" width="75" x="321" y="326.1656"/><ellipse cx="341.88" cy="335.7656" fill="#ADD1B2" rx="6.6" ry="6.6" style="stroke:#181818;stroke-width:0.6;"/><path d="M343.08,333.6656 Q343.2019,333.3656 343.3425,333.2156 Q343.4831,333.0656 343.6425,333.0656 Q343.9238,333.0656 344.1019,333.2344 Q344.28,333.4031 344.28,333.7969 L344.28,334.7344 Q344.28,335.1281 344.1113,335.2969 Q343.9425,335.4656 343.68,335.4656 Q343.4456,335.4656 343.2956,335.3625 Q343.1456,335.2594 343.08,334.9875 Q343.0519,334.8 342.9487,334.6969 Q342.7612,334.5 342.4238,334.3875 Q342.0862,334.2656 341.7488,334.2656 Q341.3269,334.2656 340.9706,334.4344 Q340.6238,334.6031 340.3519,334.9781 Q340.08,335.3531 340.08,335.8688 L340.08,336.4219 Q340.08,337.0406 340.5862,337.4531 Q341.0925,337.8656 341.9925,337.8656 Q342.5269,337.8656 342.9019,337.7438 Q343.1175,337.6781 343.3613,337.4625 Q343.5206,337.3406 343.605,337.3031 Q343.6894,337.2656 343.7925,337.2656 Q343.9894,337.2656 344.13,337.425 Q344.28,337.575 344.28,337.7906 Q344.28,337.9969 344.0737,338.2406 Q343.7737,338.5969 343.2956,338.7938 Q342.6675,339.0656 341.8987,339.0656 Q340.9988,339.0656 340.2769,338.7094 Q339.6956,338.4281 339.2831,337.8187 Q338.88,337.2094 338.88,336.4875 L338.88,335.8313 Q338.88,335.0813 339.2363,334.425 Q339.6019,333.7688 340.23,333.4219 Q340.8675,333.0656 341.58,333.0656 Q342.0112,333.0656 342.3862,333.2156 Q342.7612,333.3656 343.08,333.6656 Z " fill="#000000"/><text fill="#000000" font-family="sans-serif" font-size="8.4" lengthAdjust="spacing" textLength="29.4" x="352.92" y="339.2027">Product</text><line style="stroke:#181818;stroke-width:0.3;" x1="321.6" x2="395.4" y1="345.3656" y2="345.3656"/><rect fill="none" height="3.6" style="stroke:#C82930;stroke-width:0.6;" width="3.6" x="325.8" y="352.1484"/><text fill="#000000" font-family="sans-serif" font-size="8.4" lengthAdjust="spacing" textLength="37.2" x="333" y="356.4855">ProductID</text><rect fill="none" height="3.6" style="stroke:#C82930;stroke-width:0.6;" width="3.6" x="325.8" y="362.7141"/><text fill="#000000" font-family="sans-serif" font-size="8.4" lengthAdjust="spacing" textLength="16.2" x="333" y="367.0512">Title</text><rect fill="none" height="3.6" style="stroke:#C82930;stroke-width:0.6;" width="3.6" x="325.8" y="373.2797"/><text fill="#000000" font-family="sans-serif" font-size="8.4" lengthAdjust="spacing" textLength="19.2" x="333" y="377.6168">Price</text><rect fill="none" height="3.6" style="stroke:#C82930;stroke-width:0.6;" width="3.6" x="325.8" y="383.8453"/><text fill="#000000" font-family="sans-serif" font-size="8.4" lengthAdjust="spacing" textLength="34.8" x="333" y="388.1824">Category</text><rect fill="none" height="3.6" style="stroke:#C82930;stroke-width:0.6;" width="3.6" x="325.8" y="394.4109"/><text fill="#000000" font-family="sans-serif" font-size="8.4" lengthAdjust="spacing" textLength="22.8" x="333" y="398.748">Brand</text><rect fill="none" height="3.6" style="stroke:#C82930;stroke-width:0.6;" width="3.6" x="325.8" y="404.9766"/><text fill="#000000" font-family="sans-serif" font-size="8.4" lengthAdjust="spacing" textLength="20.4" x="333" y="409.3137">Color</text><rect fill="none" height="3.6" style="stroke:#C82930;stroke-width:0.6;" width="3.6" x="325.8" y="415.5422"/><text fill="#000000" font-family="sans-serif" font-size="8.4" lengthAdjust="spacing" textLength="26.4" x="333" y="419.8793">Weight</text><rect fill="none" height="3.6" style="stroke:#C82930;stroke-width:0.6;" width="3.6" x="325.8" y="426.1078"/><text fill="#000000" font-family="sans-serif" font-size="8.4" lengthAdjust="spacing" textLength="28.2" x="333" y="430.4449">Volume</text><rect fill="none" height="3.6" style="stroke:#C82930;stroke-width:0.6;" width="3.6" x="325.8" y="436.6734"/><text fill="#000000" font-family="sans-serif" font-size="8.4" lengthAdjust="spacing" textLength="59.4" x="333" y="441.0105">QuantityInStock</text><line style="stroke:#181818;stroke-width:0.3;" x1="321.6" x2="395.4" y1="445.2562" y2="445.2562"/></g><!--class PaymentStatus--><g id="elem_PaymentStatus"><rect codeLine="60" fill="#F1F1F1" height="49.9313" id="PaymentStatus" rx="1.5" ry="1.5" style="stroke:#181818;stroke-width:0.3;" width="80.4" x="417.3" y="363.0656"/><ellipse cx="428.19" cy="372.6656" fill="#ADD1B2" rx="6.6" ry="6.6" style="stroke:#181818;stroke-width:0.6;"/><path d="M429.39,370.5656 Q429.5119,370.2656 429.6525,370.1156 Q429.7931,369.9656 429.9525,369.9656 Q430.2338,369.9656 430.4119,370.1344 Q430.59,370.3031 430.59,370.6969 L430.59,371.6344 Q430.59,372.0281 430.4213,372.1969 Q430.2525,372.3656 429.99,372.3656 Q429.7556,372.3656 429.6056,372.2625 Q429.4556,372.1594 429.39,371.8875 Q429.3619,371.7 429.2587,371.5969 Q429.0712,371.4 428.7338,371.2875 Q428.3962,371.1656 428.0588,371.1656 Q427.6369,371.1656 427.2806,371.3344 Q426.9338,371.5031 426.6619,371.8781 Q426.39,372.2531 426.39,372.7688 L426.39,373.3219 Q426.39,373.9406 426.8962,374.3531 Q427.4025,374.7656 428.3025,374.7656 Q428.8369,374.7656 429.2119,374.6438 Q429.4275,374.5781 429.6713,374.3625 Q429.8306,374.2406 429.915,374.2031 Q429.9994,374.1656 430.1025,374.1656 Q430.2994,374.1656 430.44,374.325 Q430.59,374.475 430.59,374.6906 Q430.59,374.8969 430.3837,375.1406 Q430.0837,375.4969 429.6056,375.6937 Q428.9775,375.9656 428.2087,375.9656 Q427.3088,375.9656 426.5869,375.6094 Q426.0056,375.3281 425.5931,374.7188 Q425.19,374.1094 425.19,373.3875 L425.19,372.7313 Q425.19,371.9813 425.5463,371.325 Q425.9119,370.6688 426.54,370.3219 Q427.1775,369.9656 427.89,369.9656 Q428.3212,369.9656 428.6962,370.1156 Q429.0712,370.2656 429.39,370.5656 Z " fill="#000000"/><text fill="#000000" font-family="sans-serif" font-size="8.4" lengthAdjust="spacing" textLength="57" x="437.01" y="376.1027">PaymentStatus</text><line style="stroke:#181818;stroke-width:0.3;" x1="417.9" x2="497.1" y1="382.2656" y2="382.2656"/><rect fill="none" height="3.6" style="stroke:#C82930;stroke-width:0.6;" width="3.6" x="422.1" y="389.0484"/><text fill="#000000" font-family="sans-serif" font-size="8.4" lengthAdjust="spacing" textLength="64.8" x="429.3" y="393.3855">PaymentStatusID</text><rect fill="none" height="3.6" style="stroke:#C82930;stroke-width:0.6;" width="3.6" x="422.1" y="399.6141"/><text fill="#000000" font-family="sans-serif" font-size="8.4" lengthAdjust="spacing" textLength="24" x="429.3" y="403.9512">Status</text><line style="stroke:#181818;stroke-width:0.3;" x1="417.9" x2="497.1" y1="408.1969" y2="408.1969"/></g><!--link Customer to Order--><g id="link_Customer_Order"><path codeLine="66" d="M173.562,140.9036 C177.786,152.6156 182.232,164.9576 186.45,176.6636 " fill="none" id="Customer-Order" style="stroke:#181818;stroke-width:0.6;"/><text fill="#000000" font-family="sans-serif" font-size="7.8" lengthAdjust="spacing" textLength="4.2" x="170.6958" y="153.5377">1</text><text fill="#000000" font-family="sans-serif" font-size="7.8" lengthAdjust="spacing" textLength="12" x="172.3582" y="170.2632">0..*</text></g><!--link Order to CustomerAddress--><g id="link_Order_CustomerAddress"><path codeLine="67" d="M161.886,271.1696 C142.83,287.5016 120.672,307.2476 101.7,326.1656 C98.238,329.6156 94.728,333.2516 91.248,336.9536 " fill="none" id="Order-CustomerAddress" style="stroke:#181818;stroke-width:0.6;"/><text fill="#000000" font-family="sans-serif" font-size="7.8" lengthAdjust="spacing" textLength="4.2" x="153.0679" y="272.9198">1</text><text fill="#000000" font-family="sans-serif" font-size="7.8" lengthAdjust="spacing" textLength="4.2" x="90.9985" y="330.1336">1</text></g><!--link Order to PaymentMethod--><g id="link_Order_PaymentMethod"><path codeLine="68" d="M187.56,290.2796 C179.034,315.3176 169.44,343.4936 162.792,363.0176 " fill="none" id="Order-PaymentMethod" style="stroke:#181818;stroke-width:0.6;"/><text fill="#000000" font-family="sans-serif" font-size="7.8" lengthAdjust="spacing" textLength="4.2" x="181.8002" y="302.912">1</text><text fill="#000000" font-family="sans-serif" font-size="7.8" lengthAdjust="spacing" textLength="13.2" x="149.8722" y="356.5943">1..3</text></g><!--link Order to DeliveryMethod--><g id="link_Order_DeliveryMethod"><path codeLine="69" d="M225.84,290.2796 C234.366,315.3176 243.96,343.4936 250.608,363.0176 " fill="none" id="Order-DeliveryMethod" style="stroke:#181818;stroke-width:0.6;"/><text fill="#000000" font-family="sans-serif" font-size="7.8" lengthAdjust="spacing" textLength="4.2" x="222.8914" y="302.912">1</text><text fill="#000000" font-family="sans-serif" font-size="7.8" lengthAdjust="spacing" textLength="13.2" x="234.9415" y="356.5943">1..2</text></g><!--link Order to Product--><g id="link_Order_Product"><path codeLine="70" d="M251.496,270.7136 C270.42,286.9676 292.254,306.7796 310.5,326.1656 C313.968,329.8556 317.454,333.7736 320.874,337.7816 " fill="none" id="Order-Product" style="stroke:#181818;stroke-width:0.6;"/><text fill="#000000" font-family="sans-serif" font-size="7.8" lengthAdjust="spacing" textLength="4.2" x="256.3322" y="272.5716">1</text><text fill="#000000" font-family="sans-serif" font-size="7.8" lengthAdjust="spacing" textLength="12" x="304.1024" y="330.2605">0..*</text></g><!--link Order to PaymentStatus--><g id="link_Order_PaymentStatus"><path codeLine="71" d="M251.472,248.2256 C294.132,263.1416 358.758,289.5656 406.5,326.1656 C419.892,336.4316 432.102,350.8136 441.216,363.0536 " fill="none" id="Order-PaymentStatus" style="stroke:#181818;stroke-width:0.6;"/><text fill="#000000" font-family="sans-serif" font-size="7.8" lengthAdjust="spacing" textLength="4.2" x="256.3057" y="247.7646">1</text><text fill="#000000" font-family="sans-serif" font-size="7.8" lengthAdjust="spacing" textLength="4.2" x="433.9712" y="356.6362">1</text></g><!--link Customer to CustomerAddress--><g id="link_Customer_CustomerAddress"><path codeLine="72" d="M133.686,140.8916 C114.12,196.9736 84.336,282.3536 65.454,336.4736 " fill="none" id="Customer-CustomerAddress" style="stroke:#181818;stroke-width:0.6;"/><text fill="#000000" font-family="sans-serif" font-size="7.8" lengthAdjust="spacing" textLength="4.2" x="127.8914" y="153.5249">1</text><text fill="#000000" font-family="sans-serif" font-size="7.8" lengthAdjust="spacing" textLength="12" x="54.4641" y="330.1353">0..*</text></g><!--SRC=[VLBBRi8m4BpdAzmSAn7ryGL0a9f3WOgeLOyMNi2gOwFDfbM4ykyryGP8A3rbTktDp8xdJi56Mn2pUPxbds9jP5b64Mao859NI6r5uHIOS2AKbbkKXH3nmfhZt8eSWiZinc4XIJihLdL9KCHHnBzSe08KXqY8KS1PUiQf93XNAv9KbMrzMCgw04klG3kdcj1BmUXlmBhNNA9JrPgQssFJgYHN08wLGYZB9cfEuheZrjULB74kYw1kLQ7jy57oOZFHIBksddcJJ8kMtg4VXufPZVP2JfnjhztoBtw-nZAuOXLJLrd2Ec1D0InTIT9C_TC4WOG0rC8NnqB7UubqDEE2hsSFi_Lwp1cAlDx3nN3VVfxkD_yRvuVgM4F50_anSDpNwu2ctkYjuyKdAArYEup35ds0tkx2qk_ELBpsMoMjps-TMP_DzTVryY5b_UL3ZyLm3FrWTCf7_1YBqKZ43qbo7uUqHY7PtOd_35vpU259dkE-szStdkA1euChWP_DkrRGM-UM-g7CNm00]--></g></svg>